<svg width="26" height="26" viewBox="0 0 26 26" fill="none" xmlns="http://www.w3.org/2000/svg">
<circle cx="13" cy="13" r="13" fill="black"/>
<g clip-path="url(#clip0_51_2615)">
<path d="M8.35029 10.0963H8.53229C9.23299 10.0963 9.80629 10.6696 9.80629 11.3703V17.7403C9.80629 18.441 9.23299 19.0143 8.53229 19.0143H8.35029C7.64959 19.0143 7.07629 18.441 7.07629 17.7403V11.3703C7.07629 10.6696 7.64959 10.0963 8.35029 10.0963ZM13.4463 6.27426C14.147 6.27426 14.7203 6.84756 14.7203 7.54826V17.7403C14.7203 18.441 14.147 19.0143 13.4463 19.0143C12.7456 19.0143 12.1723 18.441 12.1723 17.7403V7.54826C12.1723 6.84756 12.7456 6.27426 13.4463 6.27426ZM18.5423 13.5543C19.243 13.5543 19.8163 14.1276 19.8163 14.8283V17.7403C19.8163 18.441 19.243 19.0143 18.5423 19.0143C17.8416 19.0143 17.2683 18.441 17.2683 17.7403V14.8283C17.2683 14.1276 17.8416 13.5543 18.5423 13.5543Z" fill="white"/>
</g>
<defs>
<clipPath id="clip0_51_2615">
<rect width="21.84" height="21.84" fill="white" transform="translate(2.52637 1.72424)"/>
</clipPath>
</defs>
</svg>
