<svg width="26" height="26" viewBox="0 0 26 26" fill="none" xmlns="http://www.w3.org/2000/svg">
<circle cx="13" cy="13" r="13" fill="black"/>
<path d="M20.0694 18.5098H18.301C18.267 18.5126 18.2331 18.5022 18.2065 18.4807C18.1798 18.4593 18.1625 18.4284 18.158 18.3945C18.1493 18.2872 18.1617 18.1894 18.3011 18.1838H18.8775C18.9686 18.1845 19.0589 18.1672 19.1432 18.1328C19.2276 18.0984 19.3043 18.0477 19.369 17.9835C19.4336 17.9193 19.4849 17.843 19.5199 17.7589C19.555 17.6748 19.573 17.5846 19.573 17.4936C19.573 17.4025 19.5549 17.3123 19.5199 17.2282C19.4849 17.1441 19.4336 17.0678 19.3689 17.0036C19.3043 16.9394 19.2276 16.8887 19.1432 16.8543C19.0589 16.82 18.9686 16.8026 18.8775 16.8033H14.8334V14.3895C17.3624 14.9638 20.171 12.5819 18.7525 10.101L15.9313 5.2655C15.9066 5.22303 15.8712 5.18779 15.8286 5.16331C15.786 5.13883 15.7377 5.12597 15.6886 5.126C15.5316 5.12549 15.3233 5.09841 15.2368 5.26552L14.3936 6.71084H12.0305V5.64447C12.0306 5.60754 12.0233 5.57096 12.0092 5.53684C11.995 5.50272 11.9743 5.47171 11.9482 5.4456C11.9221 5.41948 11.8911 5.39877 11.857 5.38464C11.8228 5.37051 11.7863 5.36324 11.7493 5.36325H8.90367C8.86673 5.36324 8.83016 5.37051 8.79604 5.38464C8.76192 5.39877 8.73091 5.41948 8.7048 5.4456C8.67868 5.47171 8.65797 5.50272 8.64384 5.53684C8.62971 5.57096 8.62244 5.60754 8.62245 5.64447V6.71084H5.93497C5.74596 6.71107 5.56476 6.78626 5.43112 6.91991C5.29747 7.05356 5.22228 7.23475 5.22205 7.42376V7.66433C5.22248 7.83308 5.2828 7.99619 5.39227 8.12462C5.50173 8.25304 5.65322 8.33844 5.81977 8.36561V10.9851C5.82041 12.7531 5.8193 17.5113 5.81977 19.2138C5.65292 19.2427 5.50159 19.3294 5.39239 19.4589C5.2832 19.5883 5.22312 19.7521 5.22273 19.9214V20.1482C5.22295 20.3392 5.29889 20.5223 5.43391 20.6573C5.56892 20.7923 5.75198 20.8683 5.94294 20.8686H14.4057C14.4147 20.8709 14.4238 20.8727 14.433 20.8741H16.6566C16.8404 20.8771 17.0178 20.8072 17.1501 20.6796C17.2824 20.5521 17.3587 20.3773 17.3624 20.1935C17.3666 20.1595 17.3839 20.1284 17.4107 20.1069C17.4374 20.0854 17.4716 20.0752 17.5057 20.0785H20.0694C20.2534 20.082 20.4314 20.0123 20.5642 19.8848C20.697 19.7573 20.7739 19.5823 20.7779 19.3982C20.8016 19.2919 20.8011 19.1815 20.7766 19.0753C20.752 18.9691 20.704 18.8698 20.6361 18.7846C20.5681 18.6994 20.4819 18.6305 20.3839 18.5829C20.2858 18.5354 20.1783 18.5104 20.0694 18.5098ZM12.4157 10.1011C12.3054 10.2911 12.2179 10.4934 12.155 10.7039H6.3822V8.37726H13.4214L12.4157 10.1011ZM6.3822 19.2013V16.8725H14.2709C14.2807 16.9197 14.2639 19.0723 14.271 19.2013L6.3822 19.2013ZM14.2709 16.3101H6.3822V11.2663H12.0533C11.9413 12.6274 12.9738 13.8281 14.2709 14.2455L14.2709 16.3101ZM15.5842 5.78618L18.267 10.3845C19.2885 12.161 17.505 13.9682 15.5842 13.9018C13.6638 13.9684 11.8791 12.1607 12.9015 10.3844L15.5842 5.78618ZM9.18488 5.92568H11.4681V6.71084H9.18488V5.92568ZM5.78448 7.42376C5.78427 7.40394 5.78801 7.38428 5.7955 7.36592C5.80299 7.34757 5.81407 7.33089 5.82808 7.31687C5.8421 7.30286 5.85877 7.29178 5.87713 7.28429C5.89548 7.2768 5.91515 7.27306 5.93497 7.27327H14.0654L13.7495 7.81483H5.93497C5.73453 7.81368 5.79148 7.5512 5.78448 7.42376ZM5.78516 20.1482C5.79161 20.0154 5.73772 19.7672 5.94295 19.7638H6.09825C6.09696 19.7652 14.552 19.7639 14.5521 19.7643C14.5544 19.7628 14.7073 19.7643 14.7101 19.7638C14.9122 19.7666 14.8635 20.015 14.8677 20.1482C14.8677 20.1901 14.8511 20.2302 14.8215 20.2598C14.792 20.2894 14.7519 20.3061 14.7101 20.3061H5.94294C5.90109 20.3061 5.86097 20.2894 5.83139 20.2598C5.80181 20.2302 5.78519 20.1901 5.78516 20.1482ZM20.2155 19.3982C20.2113 19.433 20.1937 19.4648 20.1664 19.4869C20.1391 19.5089 20.1043 19.5193 20.0694 19.516H17.5057C17.3224 19.5126 17.1451 19.582 17.0129 19.709C16.8806 19.836 16.804 20.0102 16.7999 20.1935C16.7963 20.2281 16.7792 20.2598 16.7524 20.2818C16.7256 20.3039 16.6912 20.3146 16.6566 20.3116H15.4097C15.4298 20.1826 15.4366 20.0518 15.4301 19.9214C15.4298 19.7521 15.3697 19.5884 15.2606 19.4589C15.1514 19.3295 15.0002 19.2427 14.8334 19.2138V17.3657H18.8775C18.8951 17.3644 18.9127 17.3668 18.9294 17.3726C18.946 17.3784 18.9613 17.3876 18.9742 17.3996C18.9871 17.4116 18.9974 17.4262 19.0045 17.4423C19.0115 17.4585 19.0152 17.4759 19.0152 17.4936C19.0152 17.5112 19.0115 17.5286 19.0045 17.5448C18.9974 17.561 18.9871 17.5755 18.9742 17.5875C18.9613 17.5995 18.946 17.6087 18.9294 17.6145C18.9127 17.6204 18.8951 17.6227 18.8775 17.6214H18.301C18.1177 17.618 17.9405 17.6874 17.8083 17.8143C17.676 17.9413 17.5995 18.1156 17.5955 18.2989C17.5853 18.3972 17.596 18.4966 17.6269 18.5905C17.6578 18.6844 17.7082 18.7707 17.7749 18.8438C17.8415 18.9168 17.9228 18.9749 18.0135 19.0143C18.1042 19.0537 18.2022 19.0734 18.3011 19.0722H20.0694C20.2646 19.0729 20.2083 19.2767 20.2155 19.3982Z" fill="white"/>
</svg>
