<svg width="26" height="26" viewBox="0 0 26 26" fill="none" xmlns="http://www.w3.org/2000/svg">
<circle cx="13" cy="13" r="13" fill="black"/>
<path d="M8.01995 16.22L8.43995 16.64L9.87995 14.8C9.57995 14.28 9.39995 13.66 9.39995 13C9.39995 12.34 9.57995 11.74 9.87995 11.2L8.43995 9.36L8.01995 9.78L8.65995 10.72C8.69995 10.78 8.69995 10.86 8.67995 10.92C8.61995 11.06 8.53995 11.22 8.47995 11.42C8.45995 11.48 8.39995 11.54 8.33995 11.54L7.19995 11.76V14.24L8.31995 14.46C8.37995 14.48 8.43995 14.52 8.45995 14.58C8.51995 14.76 8.59995 14.92 8.65995 15.08C8.69995 15.14 8.67995 15.22 8.63995 15.28L8.01995 16.22ZM17.56 6.88C17.6 6.94 17.6 7 17.58 7.06L16.4399 9.82C16.4 9.92 16.54 10.02 16.62 9.92L19.88 5.76C19.94 5.7 19.88 5.6 19.8 5.6H18.2C18.12 5.6 18.0599 5.56 18.0199 5.5C17.9799 5.44 17.9799 5.36 18.0199 5.3L18.56 4.34C18.6 4.28 18.56 4.2 18.48 4.2H16.98C16.94 4.2 16.9 4.22 16.88 4.26L15.76 6.66C15.74 6.72 15.8 6.8 15.86 6.8H17.4C17.46 6.8 17.52 6.84 17.56 6.88ZM17.5199 14.58C17.54 14.52 17.6 14.46 17.66 14.46L18.78 14.24V11.76L17.66 11.54C17.6 11.52 17.54 11.48 17.5199 11.42C17.46 11.24 17.38 11.08 17.32 10.92C17.28 10.86 17.2999 10.78 17.3399 10.72L17.98 9.78L17.56 9.36L16.12 11.2C16.42 11.72 16.6 12.34 16.6 13C16.6 13.66 16.42 14.26 16.12 14.8L17.56 16.64L17.98 16.22L17.3399 15.28C17.2999 15.22 17.3 15.14 17.32 15.08C17.4 14.94 17.46 14.78 17.5199 14.58Z" fill="white"/>
<path d="M9.40002 8.4L10.32 10.6C10.98 9.86 11.94 9.4 13 9.4C14.06 9.4 15.02 9.86 15.68 10.6L16.6 8.4L16.22 8.02L15.28 8.66C15.24 8.68 15.2 8.7 15.16 8.7C15.14 8.7 15.1 8.7 15.08 8.68C14.94 8.62 14.78 8.54 14.58 8.48C14.52 8.46 14.46 8.4 14.46 8.34L14.24 7.2H11.76L11.54 8.32C11.52 8.38 11.48 8.44 11.42 8.46C11.24 8.52 11.08 8.6 10.92 8.66C10.86 8.7 10.78 8.68 10.72 8.64L9.78002 8L9.40002 8.4ZM16.6 17.6L15.68 15.4C15.02 16.14 14.06 16.6 13 16.6C11.94 16.6 10.98 16.14 10.32 15.4L9.40002 17.6L9.78002 17.98L10.72 17.34C10.78 17.3 10.86 17.3 10.92 17.32C11.06 17.38 11.22 17.46 11.42 17.52C11.48 17.54 11.54 17.6 11.54 17.66L11.76 18.78H14.24L14.46 17.66C14.48 17.6 14.52 17.54 14.58 17.52C14.76 17.46 14.92 17.38 15.08 17.32C15.14 17.28 15.22 17.3 15.28 17.34L16.22 17.98L16.6 17.6Z" fill="white"/>
<path d="M7.79998 5.6H6.21998C6.13998 5.6 6.09998 5.7 6.13998 5.76L9.39998 9.92C9.47998 10.02 9.61998 9.92 9.57998 9.82L8.43998 7.06C8.41998 7 8.41998 6.92 8.45998 6.88C8.49998 6.84 8.53998 6.8 8.59998 6.8H10.12C10.2 6.8 10.24 6.72 10.22 6.66L9.09998 4.26C9.07998 4.22 9.03998 4.2 8.99998 4.2H7.49998C7.41998 4.2 7.37998 4.28 7.41998 4.34L7.95998 5.3C7.99998 5.36 7.99998 5.44 7.95998 5.5C7.93998 5.56 7.87998 5.6 7.79998 5.6ZM18.2 20.4H19.78C19.86 20.4 19.9 20.3 19.86 20.24L16.6 16.08C16.52 15.98 16.38 16.08 16.42 16.18L17.56 18.94C17.58 19 17.58 19.08 17.54 19.12C17.5 19.16 17.46 19.2 17.4 19.2H15.86C15.78 19.2 15.74 19.28 15.76 19.34L16.88 21.74C16.9 21.78 16.94 21.8 16.98 21.8H18.48C18.56 21.8 18.6 21.72 18.56 21.66L18.02 20.7C17.98 20.64 17.98 20.56 18.02 20.5C18.06 20.44 18.12 20.4 18.2 20.4ZM8.43998 19.12C8.39998 19.06 8.39998 19 8.41998 18.94L9.55998 16.18C9.59998 16.08 9.45998 15.98 9.37998 16.08L6.13998 20.24C6.07998 20.3 6.13998 20.4 6.21998 20.4H7.79998C7.87998 20.4 7.93998 20.44 7.97998 20.5C8.01998 20.56 8.01998 20.64 7.97998 20.7L7.43998 21.66C7.39998 21.72 7.43998 21.8 7.51998 21.8H8.99998C9.03998 21.8 9.07998 21.78 9.09998 21.74L10.22 19.34C10.26 19.28 10.2 19.2 10.12 19.2H8.59998C8.53998 19.2 8.47998 19.16 8.43998 19.12Z" fill="white"/>
</svg>
