<svg width="26" height="26" viewBox="0 0 26 26" fill="none" xmlns="http://www.w3.org/2000/svg">
<circle cx="13" cy="13" r="13" fill="black"/>
<path fill-rule="evenodd" clip-rule="evenodd" d="M15.709 18L15.853 17.856C16.0485 17.661 16.049 17.344 15.854 17.149C15.659 16.9535 15.342 16.953 15.147 17.148L14.147 18.146C14.053 18.24 14 18.367 14 18.4995C14 18.6325 14.0525 18.7595 14.1465 18.8535L15.1465 19.8535C15.3415 20.0485 15.6585 20.0485 15.8535 19.8535C16.0485 19.6585 16.0485 19.3415 15.8535 19.1465L15.707 19H18.4725C19.0095 19 19.5065 18.721 19.782 18.268C20.0605 17.81 20.073 17.242 19.8155 16.772L18.164 13.7595C18.0315 13.5175 17.7275 13.429 17.4855 13.5615C17.2435 13.694 17.1545 13.9985 17.287 14.2405L18.9385 17.2525C19.024 17.4085 19.0195 17.5965 18.9275 17.7485C18.832 17.9055 18.6585 18 18.4725 18H15.709Z" fill="#DDDDDD"/>
<path fill-rule="evenodd" clip-rule="evenodd" d="M7.417 14.5241L6.1845 16.7721C5.927 17.2421 5.9395 17.8101 6.218 18.2681C6.4935 18.7211 6.9905 19.0001 7.5275 19.0001H11.5C11.776 19.0001 12 18.7761 12 18.5001C12 18.2241 11.776 18.0001 11.5 18.0001H7.5275C7.3415 18.0001 7.168 17.9056 7.0725 17.7486C6.9805 17.5966 6.976 17.4086 7.0615 17.2526L8.2275 15.1256L8.259 15.2891C8.312 15.5596 8.5745 15.7371 8.8455 15.6841C9.1165 15.6316 9.2935 15.3691 9.241 15.0981L8.9715 13.7111C8.946 13.5811 8.87 13.4661 8.76 13.3921C8.65 13.3181 8.515 13.2906 8.3845 13.3161L6.9965 13.5871C6.726 13.6401 6.549 13.9026 6.602 14.1736C6.6545 14.4446 6.9175 14.6216 7.1885 14.5686L7.417 14.5241Z" fill="#B1B1B1"/>
<path fill-rule="evenodd" clip-rule="evenodd" d="M15.4616 10.9105L15.2066 10.844C14.9396 10.774 14.6661 10.9345 14.5966 11.2015C14.5266 11.4685 14.6866 11.7415 14.9536 11.8115L16.3206 12.1685C16.4491 12.202 16.5856 12.1835 16.7001 12.116C16.8146 12.049 16.8976 11.939 16.9311 11.8105L17.2871 10.442C17.3566 10.175 17.1961 9.902 16.9291 9.8325C16.6621 9.763 16.3886 9.923 16.3191 10.1905L16.2831 10.329L14.3431 6.7905C14.0771 6.3045 13.5616 6 13.0001 6C12.4386 6 11.9231 6.3045 11.6571 6.7905L9.20656 11.2595C9.07406 11.5015 9.16256 11.806 9.40456 11.9385C9.64656 12.071 9.95106 11.9825 10.0836 11.7405L12.5336 7.271C12.6261 7.103 12.8056 7 13.0001 7C13.1946 7 13.3741 7.103 13.4666 7.271L15.4616 10.9105Z" fill="#DDDDDD"/>
<path fill-rule="evenodd" clip-rule="evenodd" d="M12.5955 11.7215L11.5855 13.2205C11.482 13.374 11.472 13.5715 11.5585 13.735C11.6455 13.898 11.815 14 12 14H13.117L12.0715 15.743C11.9295 15.9795 12.006 16.287 12.243 16.4285C12.4795 16.5705 12.787 16.494 12.9285 16.257L14.4285 13.757C14.5215 13.603 14.524 13.4105 14.435 13.2535C14.3465 13.097 14.18 13 14 13H12.94L13.425 12.2805C13.579 12.0515 13.5185 11.7405 13.2895 11.5865C13.061 11.432 12.75 11.4925 12.5955 11.7215Z" fill="#E1A303"/>
<path fill-rule="evenodd" clip-rule="evenodd" d="M13.013 14.173L12.0715 15.743C11.9295 15.9795 12.006 16.287 12.243 16.4285C12.4795 16.5705 12.787 16.494 12.9285 16.257L13.013 16.117V14.173ZM13.013 11.501C12.8515 11.5005 12.6925 11.5775 12.5955 11.7215L11.5855 13.2205C11.482 13.374 11.472 13.5715 11.5585 13.735C11.6455 13.898 11.815 14 12 14H13.013V13H12.94L13.013 12.8915V11.501Z" fill="#FFC93C"/>
<path fill-rule="evenodd" clip-rule="evenodd" d="M13.0131 6H13.0001C12.4386 6 11.9231 6.3045 11.6571 6.7905L9.20656 11.2595C9.07406 11.5015 9.16256 11.806 9.40456 11.9385C9.64656 12.071 9.95106 11.9825 10.0836 11.7405L12.5336 7.271C12.6261 7.103 12.8056 7 13.0001 7C13.0046 7 13.0086 7 13.0131 7V6Z" fill="#B1B1B1"/>
</svg>
