<svg width="26" height="26" viewBox="0 0 26 26" fill="none" xmlns="http://www.w3.org/2000/svg">
<circle cx="13" cy="13" r="13" fill="black"/>
<g clip-path="url(#clip0_48_6123)">
<path d="M13 9.875C12.6292 9.875 12.2666 9.76503 11.9583 9.55901C11.65 9.35298 11.4096 9.06014 11.2677 8.71753C11.1258 8.37492 11.0887 7.99792 11.161 7.63421C11.2334 7.27049 11.412 6.9364 11.6742 6.67417C11.9364 6.41195 12.2705 6.23338 12.6342 6.16103C12.9979 6.08868 13.3749 6.12581 13.7175 6.26773C14.0601 6.40964 14.353 6.64996 14.559 6.95831C14.765 7.26665 14.875 7.62916 14.875 8C14.875 8.49728 14.6775 8.97419 14.3258 9.32583C13.9742 9.67746 13.4973 9.875 13 9.875ZM13 6.75C12.7528 6.75 12.5111 6.82331 12.3055 6.96066C12.1 7.09801 11.9398 7.29324 11.8452 7.52165C11.7505 7.75005 11.7258 8.00139 11.774 8.24386C11.8222 8.48634 11.9413 8.70907 12.1161 8.88388C12.2909 9.0587 12.5137 9.17775 12.7561 9.22598C12.9986 9.27421 13.2499 9.24946 13.4784 9.15485C13.7068 9.06024 13.902 8.90002 14.0393 8.69446C14.1767 8.4889 14.25 8.24723 14.25 8C14.25 7.66848 14.1183 7.35054 13.8839 7.11612C13.6495 6.8817 13.3315 6.75 13 6.75ZM13 12.0625C12.9171 12.0625 12.8376 12.0296 12.779 11.971C12.7204 11.9124 12.6875 11.8329 12.6875 11.75V10.5C12.6875 10.4171 12.7204 10.3376 12.779 10.279C12.8376 10.2204 12.9171 10.1875 13 10.1875C13.0829 10.1875 13.1624 10.2204 13.221 10.279C13.2796 10.3376 13.3125 10.4171 13.3125 10.5V11.75C13.3125 11.8329 13.2796 11.9124 13.221 11.971C13.1624 12.0296 13.0829 12.0625 13 12.0625ZM13 5.8125C12.9171 5.8125 12.8376 5.77958 12.779 5.72097C12.7204 5.66237 12.6875 5.58288 12.6875 5.5V4.25C12.6875 4.16712 12.7204 4.08763 12.779 4.02903C12.8376 3.97042 12.9171 3.9375 13 3.9375C13.0829 3.9375 13.1624 3.97042 13.221 4.02903C13.2796 4.08763 13.3125 4.16712 13.3125 4.25V5.5C13.3125 5.58288 13.2796 5.66237 13.221 5.72097C13.1624 5.77958 13.0829 5.8125 13 5.8125ZM16.75 8.3125H15.5C15.4171 8.3125 15.3376 8.27958 15.279 8.22097C15.2204 8.16237 15.1875 8.08288 15.1875 8C15.1875 7.91712 15.2204 7.83763 15.279 7.77903C15.3376 7.72042 15.4171 7.6875 15.5 7.6875H16.75C16.8329 7.6875 16.9124 7.72042 16.971 7.77903C17.0296 7.83763 17.0625 7.91712 17.0625 8C17.0625 8.08288 17.0296 8.16237 16.971 8.22097C16.9124 8.27958 16.8329 8.3125 16.75 8.3125ZM10.5 8.3125H9.25C9.16712 8.3125 9.08763 8.27958 9.02903 8.22097C8.97042 8.16237 8.9375 8.08288 8.9375 8C8.9375 7.91712 8.97042 7.83763 9.02903 7.77903C9.08763 7.72042 9.16712 7.6875 9.25 7.6875H10.5C10.5829 7.6875 10.6624 7.72042 10.721 7.77903C10.7796 7.83763 10.8125 7.91712 10.8125 8C10.8125 8.08288 10.7796 8.16237 10.721 8.22097C10.6624 8.27958 10.5829 8.3125 10.5 8.3125ZM14.7688 6.54375C14.7276 6.54399 14.6869 6.5361 14.6488 6.52055C14.6107 6.505 14.5761 6.48209 14.5469 6.45312C14.4887 6.39457 14.456 6.31537 14.456 6.23281C14.456 6.15025 14.4887 6.07105 14.5469 6.0125L15.4312 5.12812C15.491 5.07693 15.5679 5.05018 15.6466 5.05322C15.7252 5.05625 15.7998 5.08886 15.8555 5.14451C15.9111 5.20017 15.9437 5.27477 15.9468 5.35342C15.9498 5.43207 15.9231 5.50897 15.8719 5.56875L14.9875 6.45312C14.9293 6.51086 14.8507 6.5434 14.7688 6.54375ZM10.3469 10.9656C10.2644 10.9645 10.1858 10.9308 10.1281 10.8719C10.0699 10.8133 10.0373 10.7341 10.0373 10.6516C10.0373 10.569 10.0699 10.4898 10.1281 10.4313L11.0125 9.5625C11.0723 9.5113 11.1492 9.48455 11.2278 9.48759C11.3065 9.49063 11.3811 9.52323 11.4367 9.57889C11.4924 9.63454 11.525 9.70915 11.528 9.7878C11.5311 9.86644 11.5043 9.94334 11.4531 10.0031L10.5687 10.8875C10.5078 10.9414 10.4282 10.9695 10.3469 10.9656ZM15.6531 10.9656C15.6118 10.9655 15.5709 10.9571 15.5328 10.941C15.4947 10.9249 15.4602 10.9014 15.4312 10.8719L14.5625 9.9875C14.5295 9.92813 14.5167 9.85961 14.5261 9.79233C14.5355 9.72505 14.5666 9.66266 14.6146 9.61462C14.6627 9.56659 14.725 9.53551 14.7923 9.52611C14.8596 9.5167 14.9281 9.52948 14.9875 9.5625L15.8719 10.4469C15.9301 10.5054 15.9627 10.5846 15.9627 10.6672C15.9627 10.7497 15.9301 10.8289 15.8719 10.8875C15.8117 10.9407 15.7334 10.9687 15.6531 10.9656ZM11.2313 6.54375C11.1493 6.5434 11.0707 6.51086 11.0125 6.45312L10.1281 5.56875C10.0769 5.50897 10.0502 5.43207 10.0532 5.35342C10.0563 5.27477 10.0889 5.20017 10.1445 5.14451C10.2002 5.08886 10.2748 5.05625 10.3534 5.05322C10.4321 5.05018 10.509 5.07693 10.5687 5.12812L11.4531 6.0125C11.5113 6.07105 11.544 6.15025 11.544 6.23281C11.544 6.31537 11.5113 6.39457 11.4531 6.45312C11.4239 6.48209 11.3893 6.505 11.3512 6.52055C11.3131 6.5361 11.2724 6.54399 11.2313 6.54375ZM15.5 22.0625H10.5C10.4171 22.0625 10.3376 22.0296 10.279 21.971C10.2204 21.9124 10.1875 21.8329 10.1875 21.75C10.1875 21.3356 10.3521 20.9382 10.6451 20.6451C10.9382 20.3521 11.3356 20.1875 11.75 20.1875H14.25C14.4552 20.1875 14.6584 20.2279 14.8479 20.3064C15.0375 20.385 15.2098 20.5001 15.3549 20.6451C15.4999 20.7902 15.615 20.9625 15.6936 21.1521C15.7721 21.3416 15.8125 21.5448 15.8125 21.75C15.8125 21.8329 15.7796 21.9124 15.721 21.971C15.6624 22.0296 15.5829 22.0625 15.5 22.0625ZM10.8656 21.4375H15.1344C15.0697 21.2546 14.9499 21.0963 14.7916 20.9844C14.6332 20.8725 14.444 20.8124 14.25 20.8125H11.75C11.556 20.8124 11.3668 20.8725 11.2084 20.9844C11.0501 21.0963 10.9303 21.2546 10.8656 21.4375Z" fill="white"/>
<path d="M13.625 20.8125H12.375C12.2921 20.8125 12.2126 20.7796 12.154 20.721C12.0954 20.6624 12.0625 20.5829 12.0625 20.5V19.25C12.0625 19.1671 12.0954 19.0876 12.154 19.029C12.2126 18.9704 12.2921 18.9375 12.375 18.9375H13.625C13.7079 18.9375 13.7874 18.9704 13.846 19.029C13.9046 19.0876 13.9375 19.1671 13.9375 19.25V20.5C13.9375 20.5829 13.9046 20.6624 13.846 20.721C13.7874 20.7796 13.7079 20.8125 13.625 20.8125ZM12.6875 20.1875H13.3125V19.5625H12.6875V20.1875Z" fill="white"/>
<path d="M18.9375 19.5625H7.06249C7.01889 19.5624 6.97578 19.5532 6.93596 19.5354C6.89613 19.5176 6.86046 19.4917 6.83124 19.4594C6.80202 19.4276 6.77971 19.39 6.76573 19.3491C6.75174 19.3083 6.74638 19.2649 6.74999 19.2219L7.34687 12.9719C7.35391 12.894 7.38992 12.8215 7.44778 12.7689C7.50564 12.7162 7.58114 12.6872 7.65937 12.6875H18.3437C18.422 12.6872 18.4975 12.7162 18.5553 12.7689C18.6132 12.8215 18.6492 12.894 18.6562 12.9719L19.2531 19.2219C19.2567 19.2649 19.2514 19.3083 19.2374 19.3491C19.2234 19.39 19.2011 19.4276 19.1719 19.4594C19.1423 19.4921 19.1061 19.5183 19.0657 19.536C19.0253 19.5538 18.9816 19.5628 18.9375 19.5625ZM7.40624 18.9375H18.5937L18.0594 13.3125H7.94062L7.40624 18.9375Z" fill="white"/>
<path d="M9.2907 19.5625H9.25007C9.16765 19.5553 9.09143 19.5158 9.03812 19.4525C8.98481 19.3893 8.95877 19.3074 8.9657 19.225L9.52507 13C9.53253 12.9171 9.57261 12.8406 9.63649 12.7873C9.70037 12.7339 9.78282 12.7082 9.8657 12.7156C9.94858 12.7231 10.0251 12.7632 10.0784 12.827C10.1318 12.8909 10.1575 12.9734 10.1501 13.0562L9.6032 19.2656C9.59919 19.3458 9.5645 19.4213 9.50632 19.4766C9.44815 19.5318 9.37094 19.5626 9.2907 19.5625ZM11.4782 19.5625H11.4376C11.3552 19.5553 11.2789 19.5158 11.2256 19.4525C11.1723 19.3893 11.1463 19.3074 11.1532 19.225L11.7126 13C11.72 12.9171 11.7601 12.8406 11.824 12.7873C11.8879 12.7339 11.9703 12.7082 12.0532 12.7156C12.1361 12.7231 12.2126 12.7632 12.2659 12.827C12.3193 12.8909 12.345 12.9734 12.3376 13.0562L11.7907 19.2656C11.7867 19.3458 11.752 19.4213 11.6938 19.4766C11.6356 19.5318 11.5584 19.5626 11.4782 19.5625ZM16.7094 19.5625C16.6312 19.5628 16.5557 19.5338 16.4979 19.4811C16.44 19.4285 16.404 19.356 16.3969 19.2781L15.8532 13.0406C15.8457 12.9577 15.8715 12.8753 15.9248 12.8114C15.9782 12.7475 16.0547 12.7075 16.1376 12.7C16.2205 12.6925 16.3029 12.7183 16.3668 12.7716C16.4307 12.825 16.4707 12.9015 16.4782 12.9844L17.0219 19.2125C17.0272 19.2533 17.0243 19.2948 17.0135 19.3346C17.0026 19.3743 16.9841 19.4115 16.9588 19.444C16.9335 19.4766 16.9021 19.5038 16.8663 19.5241C16.8304 19.5444 16.791 19.5575 16.7501 19.5625H16.7094ZM14.5219 19.5625C14.4437 19.5628 14.3682 19.5338 14.3104 19.4811C14.2525 19.4285 14.2165 19.356 14.2094 19.2781L13.6657 13.0406C13.662 12.9996 13.6664 12.9582 13.6787 12.9189C13.691 12.8796 13.7109 12.843 13.7373 12.8114C13.7637 12.7798 13.7961 12.7537 13.8326 12.7345C13.8691 12.7154 13.909 12.7037 13.9501 12.7C13.9911 12.6963 14.0325 12.7007 14.0718 12.713C14.1111 12.7253 14.1477 12.7452 14.1793 12.7716C14.2109 12.798 14.237 12.8304 14.2561 12.8669C14.2753 12.9034 14.287 12.9433 14.2907 12.9844L14.8344 19.2125C14.8397 19.2533 14.8368 19.2948 14.826 19.3346C14.8151 19.3743 14.7966 19.4115 14.7713 19.444C14.746 19.4766 14.7146 19.5038 14.6788 19.5241C14.6429 19.5444 14.6035 19.5575 14.5626 19.5625H14.5219Z" fill="white"/>
<path d="M18.7594 17.6875H7.24064C7.15776 17.6875 7.07827 17.6546 7.01967 17.596C6.96106 17.5374 6.92814 17.4579 6.92814 17.375C6.92814 17.2921 6.96106 17.2126 7.01967 17.154C7.07827 17.0954 7.15776 17.0625 7.24064 17.0625H18.7594C18.8423 17.0625 18.9218 17.0954 18.9804 17.154C19.039 17.2126 19.0719 17.2921 19.0719 17.375C19.0719 17.4579 19.039 17.5374 18.9804 17.596C18.9218 17.6546 18.8423 17.6875 18.7594 17.6875ZM18.5219 15.1875H7.47814C7.39526 15.1875 7.31577 15.1546 7.25717 15.096C7.19856 15.0374 7.16564 14.9579 7.16564 14.875C7.16564 14.7921 7.19856 14.7126 7.25717 14.654C7.31577 14.5954 7.39526 14.5625 7.47814 14.5625H18.5219C18.6048 14.5625 18.6843 14.5954 18.7429 14.654C18.8015 14.7126 18.8344 14.7921 18.8344 14.875C18.8344 14.9579 18.8015 15.0374 18.7429 15.096C18.6843 15.1546 18.6048 15.1875 18.5219 15.1875ZM21.75 15.5C21.7082 15.4992 21.6669 15.4908 21.6281 15.475C20.5677 15.0183 19.4752 14.6402 18.3594 14.3438C18.3196 14.3331 18.2823 14.3147 18.2496 14.2896C18.2169 14.2645 18.1894 14.2332 18.1688 14.1975C18.1482 14.1618 18.1349 14.1224 18.1295 14.0816C18.1241 14.0407 18.1268 13.9992 18.1375 13.9594C18.1482 13.9196 18.1666 13.8823 18.1917 13.8496C18.2168 13.8169 18.2481 13.7894 18.2837 13.7688C18.3194 13.7482 18.3588 13.7349 18.3997 13.7295C18.4406 13.7241 18.4821 13.7268 18.5219 13.7375C19.6645 14.0459 20.7839 14.4343 21.8719 14.9C21.9381 14.9282 21.9926 14.9784 22.026 15.0421C22.0595 15.1059 22.07 15.1792 22.0557 15.2497C22.0413 15.3203 22.0031 15.3837 21.9474 15.4293C21.8917 15.4749 21.822 15.4999 21.75 15.5ZM4.25001 15.5C4.17803 15.4999 4.10831 15.4749 4.05262 15.4293C3.99693 15.3837 3.95869 15.3203 3.94436 15.2497C3.93004 15.1792 3.9405 15.1059 3.97398 15.0421C4.00746 14.9784 4.06192 14.9282 4.12814 14.9C5.21613 14.4343 6.33557 14.0459 7.47814 13.7375C7.51794 13.7268 7.55946 13.7241 7.60032 13.7295C7.64118 13.7349 7.68058 13.7482 7.71628 13.7688C7.75197 13.7894 7.78325 13.8169 7.80835 13.8496C7.83344 13.8823 7.85184 13.9196 7.86251 13.9594C7.87318 13.9992 7.87591 14.0407 7.87053 14.0816C7.86516 14.1224 7.85178 14.1618 7.83118 14.1975C7.81058 14.2332 7.78315 14.2645 7.75045 14.2896C7.71776 14.3147 7.68044 14.3331 7.64064 14.3438C6.52498 14.6382 5.43246 15.0142 4.37189 15.4688C4.33356 15.4867 4.29223 15.4972 4.25001 15.5Z" fill="white"/>
</g>
<defs>
<clipPath id="clip0_48_6123">
<rect width="20" height="20" fill="white" transform="translate(3 3)"/>
</clipPath>
</defs>
</svg>
