<svg width="26" height="26" viewBox="0 0 26 26" fill="none" xmlns="http://www.w3.org/2000/svg">
<circle cx="13" cy="13" r="13" fill="black"/>
<path d="M15.1125 4.58331H9.88754L4.58337 8.11415V10.9166H6.16671V9.33331H9.33337V11.5421L6.16671 18.6671V20.4166H7.75004V19.3004L12.5 16.7116L17.25 19.3004V20.4166H18.8334V18.6671L15.6667 11.5421V9.33331H18.8334V10.9166H20.4167V8.11415L15.1125 4.58331ZM14.0834 6.16665V7.74998H10.9167V6.16665H14.0834ZM7.98754 7.74998L9.33337 6.8554V7.74998H7.98754ZM14.3209 12.5L14.875 13.6241L12.5 14.875L10.125 13.6241L10.6396 12.5H14.3209ZM8.62879 17.0204L9.49171 15.0729L10.8455 15.8091L8.62879 17.0204ZM15.5005 15.0729L16.3634 17.0204L14.1467 15.8091L15.5005 15.0729ZM14.0834 10.9166H10.9167V9.33331H14.0834V10.9166ZM15.6667 6.8554L17.0125 7.74998H15.6667V6.8554Z" fill="white"/>
</svg>
