<svg width="49" height="73" viewBox="0 0 49 73" fill="none" xmlns="http://www.w3.org/2000/svg">
<path fill-rule="evenodd" clip-rule="evenodd" d="M20.2402 58.5872C20.3245 58.6097 20.4593 58.6097 20.5436 58.5872C20.6278 58.5648 20.5576 58.5479 20.3919 58.5479C20.2234 58.5479 20.156 58.5648 20.2402 58.5872ZM29.2085 58.8541C29.2984 58.958 29.4023 59.0254 29.4416 59.0029C29.4782 58.9805 29.5287 59.0114 29.554 59.0703C29.5793 59.1377 29.5989 59.1434 29.6045 59.0816C29.6074 59.0282 29.5512 58.9355 29.481 58.8737C29.4079 58.8147 29.349 58.7951 29.349 58.8316C29.349 58.8681 29.2815 58.8428 29.1973 58.7782C29.0709 58.6799 29.0737 58.694 29.2085 58.8541ZM17.996 58.9243C17.8275 59.0563 17.8275 59.0563 17.9989 58.9776C18.0972 58.9355 18.232 58.8765 18.305 58.8513C18.4174 58.8091 18.4174 58.8007 18.2994 58.7951C18.2236 58.7923 18.0887 58.8484 17.996 58.9243ZM30.8011 60.5927C30.7814 60.6292 30.8207 60.7752 30.8881 60.9185C30.9893 61.132 31.0005 61.1404 30.9555 60.9634C30.9275 60.8427 30.8994 60.6966 30.8938 60.6348C30.8853 60.5112 30.8544 60.4972 30.8011 60.5927ZM16.6029 62.3538C16.6029 62.4492 16.6338 62.5279 16.6703 62.5279C16.7096 62.5279 16.7405 62.4492 16.7405 62.3538C16.7405 62.2583 16.7096 62.1796 16.6703 62.1796C16.6338 62.1796 16.6029 62.2583 16.6029 62.3538ZM16.5889 63.6149C16.5917 63.8536 16.6085 63.9407 16.6282 63.8087C16.6479 63.6767 16.6479 63.4829 16.6254 63.3733C16.6057 63.2666 16.5889 63.3761 16.5889 63.6149ZM16.6001 66.5725C16.6001 67.241 16.6141 67.505 16.631 67.1539C16.645 66.8056 16.645 66.2579 16.631 65.9377C16.6141 65.6175 16.6001 65.9012 16.6001 66.5725ZM17.8697 68.7886C17.8697 69.1958 17.9062 69.4851 17.9567 69.4851C18.0073 69.4851 18.0438 69.1958 18.0438 68.7886C18.0438 68.3841 18.0073 68.0948 17.9567 68.0948C17.9062 68.0948 17.8697 68.3841 17.8697 68.7886ZM21.1081 68.6172C21.1081 68.783 21.125 68.8504 21.1474 68.7689C21.1699 68.6846 21.1699 68.547 21.1474 68.4628C21.125 68.3813 21.1081 68.4487 21.1081 68.6172ZM26.5655 72.0692C26.6385 72.0973 26.7424 72.1534 26.7986 72.1984C26.8604 72.2489 26.9222 72.2377 26.9643 72.1731C27.0037 72.1085 26.9924 72.0916 26.9334 72.1254C26.8829 72.1591 26.8155 72.145 26.7846 72.0973C26.7565 72.0467 26.6638 72.0102 26.5823 72.0158C26.4644 72.0214 26.4616 72.0299 26.5655 72.0692Z" fill="#FCCC43"/>
<mask id="mask0_3802_2179" style="mask-type:luminance" maskUnits="userSpaceOnUse" x="0" y="2" width="49" height="43">
<path d="M0 2.52753H48.5097V44.2317H0V2.52753Z" fill="white"/>
</mask>
<g mask="url(#mask0_3802_2179)">
<path fill-rule="evenodd" clip-rule="evenodd" d="M3.99372 5.82206C3.99372 8.28532 4.00496 9.29365 4.019 8.06062C4.03305 6.83039 4.03305 4.81372 4.019 3.58349C4.00496 2.35046 3.99372 3.35879 3.99372 5.82206ZM77.6584 8.04096C77.6584 10.1447 77.6697 10.9929 77.6837 9.92562C77.6978 8.8583 77.6978 7.13654 77.6837 6.10012C77.6697 5.06089 77.6584 5.9344 77.6584 8.04096ZM-14.8838 6.99611C-14.8838 7.85839 -14.8697 8.19825 -14.8557 7.75447C-14.8388 7.30788 -14.8388 6.60288 -14.8557 6.18719C-14.8697 5.7715 -14.8838 6.13663 -14.8838 6.99611ZM3.9853 20.5202C3.9853 20.9752 3.99934 21.1606 4.01619 20.9331C4.03585 20.7056 4.03585 20.3348 4.01619 20.1073C3.99934 19.8798 3.9853 20.0652 3.9853 20.5202ZM51.0906 43.4816C51.0906 43.5294 51.2001 43.5687 51.3293 43.5659C51.5175 43.5659 51.54 43.5462 51.4389 43.4816C51.2704 43.3721 51.0906 43.3721 51.0906 43.4816Z" fill="#5C3592"/>
</g>
<mask id="mask1_3802_2179" style="mask-type:luminance" maskUnits="userSpaceOnUse" x="0" y="0" width="49" height="58">
<path d="M0 0.00012207H48.5097V57.1748H0V0.00012207Z" fill="white"/>
</mask>
<g mask="url(#mask1_3802_2179)">
<path fill-rule="evenodd" clip-rule="evenodd" d="M-63.5305 0.371273C-63.7299 0.466769 -63.9069 0.629676 -63.9686 0.772922C-64.0754 1.03413 -64.0529 25.3101 -63.9434 25.9139C-63.8563 26.4027 -63.7973 26.7959 -63.7496 27.2621C-63.6934 27.7761 -63.6541 28.0008 -63.5361 28.5233C-63.4855 28.7395 -63.4266 29.0316 -63.4013 29.1749C-63.3563 29.4473 -63.2187 29.9782 -63.0951 30.3489C-63.0558 30.4697 -62.9575 30.8208 -62.8789 31.1326C-62.73 31.7252 -62.7244 31.7393 -62.3592 32.5622C-62.2328 32.8459 -62.1261 33.1521 -62.1177 33.2363C-62.1121 33.3234 -62.0784 33.3936 -62.0447 33.3936C-62.011 33.3936 -61.8986 33.6464 -61.7947 33.9582C-61.6936 34.2699 -61.5644 34.5255 -61.5138 34.5255C-61.4604 34.5255 -61.4436 34.548 -61.4745 34.5789C-61.5054 34.6098 -61.4548 34.7418 -61.3621 34.871C-61.2666 35.003 -61.2161 35.135 -61.247 35.1631C-61.2779 35.194 -61.261 35.2193 -61.2077 35.2193C-61.1571 35.2193 -61.0251 35.4159 -60.9184 35.6546C-60.8088 35.8934 -60.688 36.09 -60.6487 36.09C-60.6094 36.09 -60.5785 36.1462 -60.5785 36.2136C-60.5785 36.281 -60.5476 36.3484 -60.5139 36.3653C-60.4409 36.3961 -60.1881 36.7332 -59.6628 37.4803C-59.4803 37.7443 -59.1826 38.1151 -59.0028 38.3061C-58.8258 38.4971 -58.5927 38.7639 -58.4888 38.8987C-58.3821 39.0336 -58.281 39.1262 -58.2641 39.1094C-58.2444 39.0897 -57.9551 39.3369 -57.6237 39.6599C-57.2895 39.9801 -56.8092 40.3874 -56.5592 40.5615C-55.7222 41.1429 -55.4919 41.303 -55.3992 41.3704C-55.3009 41.4434 -55.2391 41.4772 -54.4892 41.8928C-53.9078 42.213 -52.9612 42.6905 -52.6635 42.8085C-52.5427 42.8562 -52.3377 42.9517 -52.2057 43.0192C-52.0765 43.0866 -51.9669 43.1231 -51.9669 43.0978C-51.9669 43.0725 -51.7029 43.1427 -51.3799 43.2551C-50.0092 43.7382 -49.0683 43.9488 -47.4055 44.1539C-45.9759 44.3308 -43.1138 44.1848 -41.7066 43.8618C-40.8106 43.6595 -40.7179 43.6343 -40.4876 43.5472C-40.4174 43.5219 -40.0832 43.4124 -39.7489 43.3056C-39.4147 43.1989 -38.8866 42.9967 -38.5749 42.8534C-37.4626 42.3422 -37.0525 42.1344 -36.9992 42.0614C-36.9711 42.022 -36.9205 41.9912 -36.8896 41.994C-36.8082 42.0052 -35.8392 41.3788 -35.8054 41.2946C-35.7886 41.2525 -35.7268 41.2216 -35.665 41.2216C-35.606 41.2216 -35.46 41.1317 -35.342 41.0221C-35.224 40.9126 -35.0106 40.7328 -34.8729 40.6233C-34.7325 40.5138 -34.4011 40.2216 -34.1399 39.9745C-32.9518 38.851 -32.6035 38.8032 -31.7215 39.6374C-31.5867 39.7666 -31.3396 39.9829 -31.1766 40.1177C-31.0109 40.2525 -30.7413 40.4801 -30.5728 40.6205C-30.4071 40.7637 -30.1206 40.9575 -29.9436 41.053C-29.7639 41.1485 -29.6178 41.2581 -29.6178 41.3002C-29.6178 41.3395 -29.5476 41.3985 -29.4633 41.4266C-29.3819 41.4575 -29.1937 41.5586 -29.0504 41.6541C-28.9072 41.7496 -28.6937 41.876 -28.573 41.935C-28.4522 41.994 -28.337 42.0642 -28.3117 42.0895C-28.1882 42.2187 -27.3736 42.6006 -27.3231 42.5529C-27.2922 42.522 -27.2697 42.5417 -27.2697 42.5978C-27.2697 42.654 -27.2388 42.6933 -27.2023 42.6849C-27.1686 42.6765 -27.0281 42.7158 -26.8933 42.772C-26.7585 42.8282 -26.6153 42.8731 -26.5731 42.8731C-26.5338 42.8731 -26.4861 42.904 -26.472 42.9433C-26.4552 42.9826 -26.031 43.1427 -25.5283 43.3C-25.0255 43.4573 -24.5565 43.609 -24.4862 43.6343C-24.4132 43.6624 -24.2391 43.6989 -24.0958 43.7213C-23.9554 43.741 -23.7756 43.7916 -23.697 43.8337C-23.6211 43.873 -23.3656 43.9348 -23.1296 43.9657C-22.8965 43.9966 -22.6269 44.05 -22.5286 44.0837C-22.4331 44.1146 -22.228 44.1342 -22.0707 44.123C-21.9162 44.1146 -21.7899 44.137 -21.7899 44.1792C-21.7899 44.2185 -20.7815 44.2381 -19.5485 44.2213C-17.3914 44.1932 -17.133 44.1792 -16.6583 44.0612C-16.5375 44.0303 -16.3241 43.9882 -16.1808 43.9685C-16.0376 43.9488 -15.9196 43.9236 -15.9196 43.9123C-15.9196 43.9039 -15.841 43.8842 -15.7455 43.873C-15.4449 43.8309 -14.709 43.6399 -14.5489 43.5584C-14.4675 43.5163 -14.3607 43.4826 -14.3158 43.4826C-14.2709 43.4826 -14.1248 43.4377 -13.99 43.3815C-13.8552 43.3253 -13.726 43.2719 -13.7007 43.2635C-13.6782 43.2551 -13.5462 43.2045 -13.4114 43.1484C-13.2766 43.0922 -13.1333 43.0472 -13.0912 43.0472C-13.0491 43.0472 -12.8412 42.9546 -12.6278 42.8422C-12.4143 42.727 -12.1418 42.6119 -12.0211 42.581C-11.8975 42.5501 -11.7458 42.4771 -11.6812 42.4153C-11.5267 42.2748 -11.2908 42.1288 -10.9172 41.9462C-10.5858 41.7833 -9.94261 41.3845 -9.8752 41.3002C-9.84992 41.2721 -9.73195 41.1963 -9.61398 41.1345C-9.35839 40.9997 -9.0073 40.7413 -8.67025 40.4379C-8.53824 40.3171 -8.23489 40.0672 -7.99896 39.879C-7.42317 39.4183 -6.39517 38.3819 -6.39517 38.264C-6.39517 38.2106 -6.35585 38.1909 -6.3081 38.219C-6.26035 38.2499 -6.22103 38.2415 -6.22103 38.2022C-6.22103 38.1628 -6.13396 38.0336 -6.02442 37.9129C-5.68456 37.5365 -5.17618 36.8877 -5.17618 36.8315C-5.17618 36.8006 -5.08068 36.6714 -4.95991 36.5422C-4.83913 36.413 -4.71555 36.2276 -4.68746 36.1321C-4.65656 36.0366 -4.60601 35.9383 -4.57792 35.9159C-4.54702 35.8906 -4.38973 35.6181 -4.22683 35.3064C-4.06392 34.9946 -3.90944 34.7221 -3.88135 34.6969C-3.78024 34.6126 -3.43757 33.8486 -3.43757 33.711C-3.43757 33.6323 -3.39825 33.5677 -3.3505 33.5677C-3.30275 33.5677 -3.27186 33.5369 -3.28028 33.5031C-3.28871 33.4666 -3.24377 33.3206 -3.18198 33.1745C-3.12019 33.0313 -3.03592 32.8375 -2.9966 32.742C-2.90391 32.5201 -2.5472 31.346 -2.35059 30.6101C-2.26914 30.2984 -2.16241 29.9389 -2.11466 29.8125C-2.06972 29.6833 -2.05287 29.5372 -2.08376 29.4923C-2.11185 29.4445 -2.095 29.3799 -2.04725 29.349C-1.99669 29.3181 -1.97141 29.2676 -1.99107 29.2339C-2.01074 29.203 -1.99107 28.9586 -1.94894 28.6974C-1.90681 28.4334 -1.85625 28.1216 -1.8394 28.0008C-1.81974 27.8829 -1.7748 27.5093 -1.7411 27.1751C-1.70739 26.8408 -1.66526 26.4476 -1.65122 26.3044C-1.55572 25.4673 -1.46303 2.46659 -1.54448 0.840332C-1.5501 0.753261 -1.66807 0.587545 -1.8057 0.472387L-2.05567 0.258923H-7.98773C-14.1023 0.258923 -14.4001 0.272967 -14.709 0.615633C-14.8691 0.792584 -14.8747 1.14368 -14.8916 12.8112C-14.9141 27.5879 -14.8719 26.7257 -15.6163 28.1722C-15.9477 28.8097 -16.8746 29.9136 -17.0824 29.9136C-17.1302 29.9136 -17.2032 29.9669 -17.2397 30.0315C-17.4026 30.3068 -18.9895 30.9275 -19.7226 31.0034C-20.7731 31.1101 -22.1185 30.9725 -22.5173 30.7197C-22.5707 30.686 -22.6353 30.6551 -22.6578 30.6523C-22.7785 30.6439 -23.6155 30.1383 -23.6155 30.0737C-23.6155 30.0344 -23.6661 30.0007 -23.7279 30.0007C-23.7869 30.0007 -23.8964 29.9332 -23.9666 29.849C-24.5059 29.2086 -24.8205 28.7704 -24.9806 28.4362C-25.2165 27.9447 -25.5339 27.1554 -25.5704 26.97C-25.5873 26.8914 -25.6406 26.72 -25.694 26.588C-25.7446 26.456 -25.7698 26.3493 -25.7502 26.3493C-25.7305 26.3493 -25.7923 26.133 -25.885 25.869C-26.0479 25.4084 -26.0507 25.046 -26.0507 14.4992C-26.0507 8.50819 -26.0479 2.9525 -26.0507 2.15763V0.708321L-26.4636 0.503283L-26.8765 0.301054H-32.7467C-39.1226 0.301054 -39.1001 0.298246 -39.3585 0.784157C-39.4119 0.882463 -39.4428 5.66013 -39.4456 13.5105C-39.4456 21.8188 -39.4765 26.0965 -39.5326 26.133C-39.5832 26.1611 -39.5972 26.2229 -39.5692 26.2678C-39.5214 26.3465 -39.6534 26.8521 -39.7967 27.1414C-39.836 27.22 -39.895 27.425 -39.9259 27.5992C-39.9596 27.7733 -40.0214 27.939 -40.0635 27.9643C-40.1084 27.9924 -40.2208 28.1694 -40.3191 28.3575C-40.5157 28.7451 -40.7488 29.0457 -41.1561 29.4333C-41.5549 29.8125 -41.9819 30.1748 -42.0296 30.1748C-42.0521 30.1748 -42.1757 30.2506 -42.3049 30.3433C-42.4369 30.436 -42.6475 30.5371 -42.7767 30.5708C-42.9059 30.6017 -43.0099 30.6691 -43.0099 30.7169C-43.0099 30.7646 -43.0632 30.7815 -43.1306 30.7562C-43.1952 30.7309 -43.2851 30.745 -43.3244 30.7843C-43.8918 31.3264 -47.9673 30.7815 -47.9673 30.1607C-47.9673 30.1158 -48.0066 30.1018 -48.0543 30.1327C-48.1021 30.1607 -48.1414 30.1383 -48.1414 30.0793C-48.1414 30.0203 -48.1639 29.995 -48.192 30.0231C-48.2201 30.0512 -48.3127 30.0091 -48.397 29.9276C-48.4841 29.849 -48.6863 29.6664 -48.8492 29.5232C-49.0093 29.3799 -49.279 29.0653 -49.4475 28.8266C-49.6132 28.5879 -49.7733 28.3716 -49.8042 28.3491C-49.9587 28.2199 -50.4614 26.8071 -50.4979 26.3914C-50.5232 26.0993 -50.5766 16.7968 -50.5991 8.59245L-50.6215 0.792583L-50.8266 0.573502C-51.1271 0.253306 -51.1861 0.250496 -57.4327 0.230836C-62.8423 0.213983 -63.2159 0.22241 -63.5305 0.371273ZM5.69363 0.343185C4.66844 0.396551 4.28364 0.517327 4.14321 0.82348C3.92412 1.30377 3.95783 23.608 4.17691 25.9533C4.22185 26.4307 4.28645 26.9138 4.38476 27.5233C4.53643 28.4446 4.57575 28.6328 4.83696 29.6524C4.98021 30.2029 5.10941 30.7197 5.12907 30.8011C5.14592 30.8798 5.19929 31.0174 5.24423 31.1045C5.29198 31.1916 5.32287 31.2814 5.31726 31.3067C5.3004 31.3685 5.61779 32.2055 5.70205 32.3094C5.73857 32.3572 5.78912 32.5004 5.81159 32.6268C5.83406 32.7532 5.93237 33.006 6.03068 33.1886C6.12898 33.3739 6.2638 33.6408 6.33402 33.784C6.54187 34.225 6.80589 34.6997 6.90419 34.8204C6.95475 34.8822 7.09238 35.1097 7.20754 35.326C7.40415 35.6968 7.5811 35.9467 7.85355 36.2304C7.91534 36.295 7.935 36.3512 7.89849 36.3512C7.85916 36.3512 7.91534 36.4383 8.01926 36.545C8.35631 36.8877 8.65123 37.2444 8.65123 37.3062C8.65123 37.3399 8.99951 37.7163 9.42363 38.1404C10.1174 38.8369 10.4881 39.174 11.1735 39.7329C11.2914 39.8312 11.4487 39.9632 11.5218 40.0307C11.592 40.0953 11.8476 40.2806 12.0863 40.4407C12.3251 40.6008 12.5329 40.7637 12.5498 40.8031C12.5835 40.8873 13.0666 41.1485 13.1227 41.1148C13.1424 41.1008 13.2491 41.1738 13.3615 41.2749C13.5721 41.4659 13.912 41.6625 14.3249 41.8339C14.4569 41.89 14.5636 41.9715 14.5636 42.0164C14.5636 42.0642 14.6029 42.0754 14.6507 42.0473C14.6984 42.0164 14.7378 42.0361 14.7378 42.0895C14.7378 42.1428 14.7715 42.1681 14.8136 42.1428C14.8529 42.1175 15.0355 42.1709 15.2181 42.2636C15.3978 42.3563 15.5804 42.4125 15.6225 42.3872C15.6618 42.3619 15.6955 42.3816 15.6955 42.4321C15.6955 42.4855 15.7629 42.5248 15.8472 42.5248C15.9315 42.5276 16.114 42.5866 16.2545 42.6596C16.4764 42.7748 16.6983 42.8422 16.9314 42.8675C16.9679 42.8703 17.0072 45.6032 17.0241 48.94C17.0381 52.2768 17.0774 55.0855 17.1055 55.181C17.1364 55.2765 17.1645 55.3916 17.1673 55.4422C17.1701 55.4899 17.274 55.636 17.3948 55.768C17.5156 55.9 17.5858 56.0068 17.5521 56.0068C17.3358 56.0068 18.1419 56.4477 18.4987 56.5236C19.1334 56.6612 28.7421 56.6415 29.2533 56.5011C29.8094 56.3522 30.2757 55.8916 30.4835 55.2905C30.6464 54.813 30.6549 54.5406 30.6549 48.9849L30.6577 43.1764L31.548 42.8338C32.0368 42.6456 32.5845 42.3984 32.7614 42.2889C32.9412 42.1793 33.1209 42.0895 33.1631 42.0895C33.2052 42.0895 33.3344 42.0164 33.4467 41.9266C33.5619 41.8367 33.7922 41.685 33.9579 41.5923C34.6657 41.1907 34.955 41.0025 35.1601 40.8143C35.278 40.7019 35.4297 40.6121 35.4943 40.6121C35.5589 40.6121 35.6123 40.5755 35.6123 40.5306C35.6123 40.4857 35.6797 40.4295 35.7639 40.4014C35.8482 40.3733 36.0982 40.1851 36.3201 39.9829C36.5392 39.7779 36.8874 39.4773 37.0897 39.3116C37.5194 38.9633 38.0446 38.4241 38.0475 38.3286C38.0475 38.292 38.1064 38.264 38.1767 38.264C38.2497 38.264 38.3087 38.2274 38.3087 38.1797C38.3087 38.1348 38.4154 37.9915 38.5474 37.8595C38.789 37.6179 39.4209 36.8455 39.7439 36.399C39.8394 36.2669 39.9602 36.1097 40.0164 36.0535C40.0697 35.9945 40.2018 35.7754 40.3085 35.562C40.418 35.3485 40.5388 35.1547 40.5809 35.1266C40.6231 35.0985 40.7298 34.944 40.8169 34.7783C41.5275 33.4498 41.7746 32.9583 41.7325 32.9583C41.7072 32.9583 41.7775 32.8122 41.887 32.6324C41.9993 32.4527 42.0752 32.3066 42.0611 32.3066C42.0471 32.3066 42.078 32.1971 42.1285 32.0623C42.1791 31.9274 42.2212 31.7673 42.2212 31.7084C42.2212 31.6494 42.2577 31.5651 42.2999 31.5202C42.4094 31.405 42.7493 30.29 42.7998 29.8714C42.8223 29.6805 42.8757 29.4867 42.915 29.4361C43.0273 29.2985 43.2942 27.748 43.3925 26.6526C43.4206 26.3184 43.4824 25.7314 43.5245 25.3494C43.5694 24.9646 43.6031 24.5938 43.6003 24.5236C43.6003 24.4506 43.6031 19.1336 43.6059 12.7044L43.6144 1.01728L43.3925 0.725174C43.2689 0.565075 43.0639 0.404977 42.9347 0.368464C42.4403 0.233645 30.8037 0.289819 30.5678 0.427447C30.447 0.497666 30.3206 0.548223 30.2869 0.536988C29.9836 0.452726 29.7504 10.3816 30.0482 10.7383C30.1072 10.8114 30.1212 11.8562 30.0903 13.8813C30.0622 15.5469 30.0285 18.9146 30.0088 21.361C29.992 24.0517 29.9442 25.9224 29.8881 26.0993C29.8403 26.2594 29.801 26.4504 29.801 26.5234C29.801 26.6835 29.5201 27.4447 29.3488 27.7396C29.2814 27.8604 29.2224 27.9784 29.2196 28.0008C29.1859 28.2283 28.9668 28.5092 28.2 29.3069C27.6804 29.8462 26.38 30.6298 25.8266 30.7365C25.7311 30.7562 25.4194 30.8264 25.1329 30.8938C24.6077 31.0202 23.0488 31.0343 22.5236 30.9191C22.1921 30.8489 21.3355 30.5343 21.2203 30.4416C21.1698 30.4023 21.0349 30.3405 20.9198 30.3068C20.8046 30.2703 20.608 30.1495 20.4844 30.0344C20.3637 29.922 20.2288 29.8265 20.1839 29.8265C20.0968 29.8265 19.0913 28.8238 18.9565 28.6019C18.4284 27.7368 18.288 27.4728 18.1841 27.1751C17.9313 26.4364 17.8555 26.1611 17.715 25.4365C17.6869 25.2932 17.642 19.6645 17.6139 12.9263C17.5662 0.798201 17.5633 0.680234 17.392 0.581928C17.1701 0.455535 17.0774 0.433065 16.3921 0.340377C15.7854 0.258923 7.21877 0.261731 5.69363 0.343185ZM50.3525 0.37689C50.1559 0.463961 50.066 0.587545 49.9818 0.874037C49.8217 1.42736 49.8638 42.7832 50.0267 42.977C50.0857 43.0472 50.111 43.1287 50.0829 43.1568C50.0211 43.2214 50.3048 43.3731 50.58 43.4264C50.6924 43.4461 50.8272 43.4742 50.8749 43.4826C50.9227 43.4938 51.0013 43.4966 51.0491 43.491C51.0968 43.4826 53.6556 43.4798 56.7368 43.4798L62.3402 43.4826L62.6155 43.2719C62.975 42.9967 62.9385 43.741 62.975 35.958C63.0115 28.0514 63.0424 25.5235 63.1098 25.2174C63.1351 25.0994 63.1997 24.8438 63.253 24.6528C63.3036 24.4618 63.3654 24.1472 63.3907 23.9562C63.444 23.5518 63.4834 23.358 63.6013 22.9226C63.6603 22.7092 63.6603 22.6081 63.5985 22.6081C63.5508 22.6081 63.5732 22.5126 63.6491 22.3946C63.7277 22.2766 63.8008 22.0126 63.8148 21.8076C63.8288 21.6025 63.8682 21.3863 63.9075 21.3273C63.944 21.2655 63.9524 21.2177 63.9215 21.2177C63.8934 21.2177 63.9187 21.1307 63.9805 21.0211C64.0395 20.9144 64.0929 20.8077 64.0985 20.7824C64.1631 20.5015 64.2726 20.1869 64.3681 20.0044C64.4327 19.8836 64.4861 19.7319 64.4861 19.6673C64.4861 19.6055 64.5451 19.4932 64.6153 19.4229C64.6883 19.3499 64.7473 19.1954 64.7473 19.0803C64.7473 18.9483 64.7979 18.8696 64.8821 18.8696C64.9579 18.8696 64.9973 18.8359 64.972 18.7938C64.9467 18.7517 65.0029 18.6477 65.0984 18.5607C65.2192 18.4511 65.2416 18.3837 65.1714 18.3416C65.104 18.2994 65.1321 18.2461 65.2557 18.1787C65.3596 18.1253 65.4439 18.0242 65.4439 17.9568C65.4439 17.8866 65.5197 17.7911 65.6152 17.7405C65.7107 17.6871 65.7781 17.6141 65.7669 17.572C65.736 17.4568 67.3285 15.9401 67.6178 15.8109C67.7611 15.7463 67.879 15.6677 67.879 15.6311C67.879 15.5946 67.9352 15.5637 68.0082 15.5637C68.0785 15.5637 68.1374 15.5328 68.1374 15.4963C68.1374 15.4598 68.2554 15.3587 68.3987 15.2744C68.5419 15.1902 68.6599 15.148 68.6599 15.1817C68.6599 15.2155 68.7301 15.1874 68.8115 15.1171C68.8958 15.0469 69.1795 14.9177 69.4435 14.825C69.7075 14.7352 70.0193 14.6116 70.1401 14.547C70.258 14.4852 70.4209 14.4346 70.5024 14.4346C70.5838 14.4346 70.6765 14.3925 70.7074 14.3419C70.7383 14.2886 70.8198 14.2689 70.89 14.2942C70.9574 14.3223 71.2018 14.2689 71.4321 14.1762C71.6624 14.0863 71.9854 13.9937 72.1483 13.9684C72.3112 13.9459 72.4432 13.9206 72.4432 13.915C72.4432 13.8953 72.8898 13.8307 73.401 13.7802C73.6398 13.7549 74.0498 13.71 74.3138 13.6819C74.5779 13.6538 74.9571 13.6257 75.1565 13.6257C75.3587 13.6229 75.5019 13.5836 75.4739 13.5414C75.4458 13.4965 75.5048 13.5049 75.6087 13.5583C75.7098 13.6117 75.7912 13.6257 75.7912 13.5892C75.7912 13.5527 76.0749 13.5077 76.4232 13.4937C77.7489 13.4375 77.631 14.0751 77.6366 6.91282C77.6422 0.753261 77.6338 0.604398 77.2686 0.604398C77.2209 0.604398 77.1844 0.548224 77.1844 0.475196C77.1844 0.362846 76.9091 0.348803 75.1171 0.379699C72.6988 0.419021 72.0528 0.452726 72.0528 0.536988C72.0528 0.570693 71.9966 0.579119 71.9264 0.551032C71.8562 0.525753 71.7495 0.534179 71.6877 0.573502C71.6259 0.610015 71.4574 0.652147 71.3141 0.66619C71.0445 0.694278 70.7046 0.75607 70.7046 0.77854C70.7046 0.786966 70.6204 0.806628 70.5192 0.826288C70.4181 0.84595 70.2243 0.907742 70.0867 0.966725C69.9463 1.0229 69.8143 1.07627 69.7918 1.08188C69.7665 1.09031 69.5839 1.14368 69.3817 1.19985C69.1795 1.25883 68.9913 1.3431 68.9632 1.39084C68.9351 1.43578 68.8143 1.47511 68.6936 1.47511C68.5728 1.47511 68.4998 1.51162 68.5279 1.56218C68.5588 1.60993 68.525 1.62397 68.4464 1.59588C68.3734 1.56779 68.3116 1.59026 68.3116 1.64363C68.3116 1.69981 68.2723 1.72228 68.2245 1.69138C68.1768 1.66329 68.1374 1.67453 68.1374 1.71666C68.1374 1.75879 67.9717 1.87956 67.7695 1.98349C67.2752 2.24189 67.0982 2.35143 66.8061 2.58456C66.6713 2.69129 66.5084 2.77836 66.4438 2.77836C66.3792 2.77836 66.2275 2.89914 66.1039 3.048C65.9803 3.19405 65.8764 3.2727 65.8764 3.22214C65.8764 3.17158 65.7697 3.23619 65.6377 3.3682C65.5057 3.4974 65.281 3.66873 65.1377 3.74457C64.9945 3.8204 64.8877 3.92713 64.899 3.98331C64.9102 4.03948 64.8625 4.08442 64.7894 4.08442C64.7192 4.08442 64.6602 4.12656 64.6602 4.17711C64.6602 4.22767 64.6293 4.25014 64.59 4.22486C64.5507 4.19958 64.3456 4.3344 64.1322 4.52259C63.9215 4.71358 63.7165 4.86806 63.6772 4.86806C63.6378 4.86806 63.5171 4.96356 63.4075 5.08434C63.2952 5.20511 63.1604 5.30061 63.107 5.30061C63.0508 5.30061 63.0059 5.3315 63.0059 5.36802C63.0059 5.40172 62.8907 5.50003 62.7475 5.57867L62.4891 5.72754L62.4638 3.0143L62.4413 0.301054L56.5289 0.281393C51.799 0.26735 50.5604 0.287011 50.3525 0.37689ZM100.828 0.298246C100.792 0.334759 99.365 0.449917 98.91 0.455535C98.7302 0.458343 98.6038 0.489239 98.6263 0.522945C98.6459 0.559458 98.5757 0.590354 98.469 0.593163C98.0673 0.604398 97.9213 0.621251 97.7949 0.668999C97.7247 0.697087 97.5674 0.7336 97.4494 0.75607C97.3314 0.775731 97.177 0.837524 97.1067 0.893698C97.0056 0.97796 96.9944 0.972343 97.0534 0.874037C97.1067 0.784157 97.0955 0.772922 97.0056 0.829097C96.8764 0.907742 96.7613 0.938637 96.4046 0.986386C96.0394 1.03413 95.708 1.14368 95.7445 1.20266C95.7642 1.23356 95.6939 1.26445 95.5928 1.27007C95.3541 1.28692 95.2221 1.32624 94.8204 1.506C94.6407 1.58465 94.3963 1.64925 94.2699 1.64925C94.1435 1.64925 94.0677 1.68576 94.0986 1.73632C94.1295 1.78407 94.0789 1.82339 93.9919 1.82339C93.902 1.82339 93.666 1.90203 93.4666 1.99753C93.27 2.09303 93.0453 2.17167 92.9667 2.17167C92.8908 2.17167 92.8515 2.211 92.8824 2.25874C92.9105 2.30649 92.8515 2.34582 92.7504 2.34582C92.6324 2.34582 92.5903 2.38233 92.6296 2.44693C92.6717 2.51434 92.6465 2.53119 92.5482 2.49187C92.4695 2.46097 92.4049 2.48064 92.4049 2.53119C92.4049 2.58175 92.3459 2.60141 92.2729 2.57332C92.1999 2.54804 92.1437 2.56209 92.1437 2.60703C92.1437 2.65478 92.0847 2.6941 92.0117 2.6941C91.9415 2.6941 91.8825 2.73061 91.8825 2.77836C91.8825 2.82611 91.8516 2.85981 91.8179 2.85139C91.7449 2.83454 91.2561 3.05081 91.1859 3.12945C91.1606 3.15754 90.9865 3.27551 90.7955 3.38786C90.6045 3.50302 90.4191 3.63784 90.3826 3.68839C90.3489 3.73895 90.318 3.75018 90.318 3.71086C90.318 3.67435 90.231 3.7221 90.1298 3.81759C90.0259 3.91309 89.908 3.97207 89.8686 3.9468C89.8265 3.92152 89.7928 3.93275 89.7928 3.96927C89.7928 4.00859 89.6467 4.13779 89.467 4.25857C89.2872 4.37653 89.1131 4.51416 89.0794 4.56191C89.0429 4.60966 89.0148 4.62089 89.012 4.58719C89.012 4.55068 88.8743 4.6546 88.7058 4.82031C88.5373 4.98322 88.321 5.14332 88.2255 5.17141C88.13 5.2023 88.0738 5.26409 88.1019 5.30903C88.13 5.35397 88.1216 5.39049 88.0823 5.39049C87.9952 5.3933 87.484 5.80056 87.2368 6.06458C86.5712 6.778 86.2088 7.1291 86.133 7.1291C86.0825 7.1291 86.0656 7.1628 86.0909 7.20493C86.119 7.24706 86.0572 7.30324 85.9589 7.32852C85.8578 7.3566 85.8016 7.4184 85.8353 7.47176C85.8662 7.52232 85.8297 7.58692 85.7566 7.61501C85.6808 7.6459 85.619 7.70208 85.619 7.74702C85.619 7.78915 85.4758 7.96048 85.2988 8.12901C85.1191 8.29472 85.0095 8.43235 85.0488 8.43235C85.091 8.43235 85.0011 8.55032 84.8494 8.69356C84.7006 8.83681 84.5854 8.96601 84.5966 8.97725C84.6275 9.00814 84.1107 9.68786 84.0321 9.72156C83.9956 9.73841 83.9871 9.78616 84.0124 9.82829C84.0405 9.87042 83.9422 10.0305 83.7961 10.1822C83.6529 10.3339 83.5321 10.494 83.5321 10.5389C83.5321 10.5838 83.4142 10.7917 83.2709 10.9995C83.1249 11.2102 82.9844 11.4995 82.9563 11.6455C82.9254 11.7916 82.8693 11.8899 82.8299 11.8646C82.7457 11.8141 82.4873 12.3309 82.4648 12.5893C82.4592 12.6876 82.4227 12.7522 82.389 12.7297C82.3525 12.7073 82.2766 12.8561 82.2176 13.0612C82.1586 13.2662 82.0547 13.4993 81.9873 13.5808C81.9171 13.6622 81.8553 13.8251 81.8497 13.9431C81.8413 14.0611 81.8076 14.1369 81.771 14.1172C81.7345 14.0948 81.7064 14.1566 81.7064 14.2577C81.7064 14.3588 81.6334 14.5863 81.5435 14.7632C81.4565 14.9402 81.4003 15.134 81.42 15.1958C81.4424 15.2548 81.4228 15.3025 81.375 15.3025C81.3048 15.3025 81.1784 15.7154 81.1475 16.044C81.1447 16.0918 81.0913 16.2182 81.0295 16.3249C80.9368 16.485 80.9368 16.5215 81.0295 16.5215C81.1082 16.5243 81.1026 16.5496 81.0099 16.6086C80.9397 16.6535 80.9116 16.6928 80.9481 16.6928C80.9846 16.6957 80.979 16.7659 80.934 16.8501C80.8863 16.9344 80.8273 17.1647 80.7964 17.3585C80.7683 17.5523 80.7093 17.8416 80.6616 17.9989C80.6167 18.1562 80.5998 18.3191 80.6279 18.3584C80.6532 18.4006 80.6419 18.4343 80.6026 18.4343C80.5633 18.4343 80.524 18.6 80.5127 18.805C80.5015 19.0072 80.4678 19.3892 80.4369 19.6533C80.347 20.3751 80.347 23.3467 80.4369 24.0883C80.479 24.445 80.5212 24.8775 80.5324 25.0488C80.5408 25.2202 80.5998 25.5011 80.656 25.678C80.715 25.8521 80.7374 26.0375 80.7065 26.0853C80.6756 26.1358 80.6869 26.1751 80.7318 26.1751C80.7768 26.1751 80.802 26.2735 80.788 26.3914C80.7739 26.5122 80.7992 26.6105 80.8442 26.6105C80.8863 26.6105 80.9228 26.7397 80.9228 26.897C80.9228 27.0543 80.9621 27.2228 81.0071 27.2677C81.0548 27.3155 81.1138 27.5065 81.1419 27.6975C81.1672 27.8885 81.257 28.2199 81.3357 28.4362C81.4171 28.6496 81.4874 28.8463 81.493 28.8715C81.4986 28.894 81.5492 29.026 81.6053 29.158C81.6615 29.2928 81.7064 29.4361 81.7064 29.4782C81.7064 29.5204 81.8385 29.8209 82.0014 30.1467C82.1643 30.4725 82.3496 30.8966 82.4142 31.0876C82.4788 31.2786 82.5828 31.4893 82.6418 31.5511C82.7007 31.6157 82.7513 31.714 82.7513 31.7702C82.7513 31.8263 82.8299 31.9696 82.9226 32.0875C83.0181 32.2083 83.094 32.374 83.0968 32.4583C83.0968 32.5426 83.1305 32.61 83.1698 32.61C83.2119 32.61 83.3187 32.7673 83.4113 32.9583C83.5012 33.1492 83.6051 33.3037 83.6445 33.3065C83.681 33.3065 83.7512 33.3936 83.799 33.5031C83.9478 33.829 84.1079 34.0846 84.2933 34.2896C84.3888 34.3935 84.518 34.5761 84.5798 34.6969C84.6416 34.8148 84.782 34.9834 84.8944 35.0732C85.0067 35.1603 85.0994 35.2895 85.0994 35.3569C85.0994 35.4243 85.1528 35.4805 85.223 35.4805C85.2904 35.4805 85.3718 35.5591 85.4027 35.6518C85.4308 35.7473 85.5544 35.9018 85.6752 35.9973C85.796 36.0928 85.869 36.2108 85.8381 36.2585C85.81 36.3091 85.8269 36.3512 85.883 36.3512C85.9364 36.3512 86.0403 36.4102 86.1105 36.4804C86.1836 36.5534 86.2117 36.6124 86.178 36.6124C86.1442 36.6124 86.206 36.6911 86.3156 36.7866C86.4251 36.8821 86.5487 36.9579 86.5908 36.9579C86.6302 36.9579 86.6526 37.0056 86.6414 37.0646C86.6302 37.1208 86.6582 37.1714 86.706 37.177C86.7537 37.1798 86.9307 37.3174 87.0992 37.4775C87.2649 37.6404 87.3436 37.7443 87.2734 37.7106C87.2003 37.6769 87.2172 37.6994 87.3071 37.7612C87.3998 37.823 87.5458 37.941 87.6329 38.0252C87.7228 38.1095 87.793 38.1572 87.793 38.1319C87.793 38.1067 87.9222 38.1994 88.0767 38.3426C88.7929 38.9886 89.0063 39.1571 89.5344 39.5026C89.8434 39.7048 90.1748 39.9408 90.2675 40.025C90.3602 40.1093 90.4866 40.1767 90.5512 40.1767C90.6129 40.1767 90.7337 40.2469 90.818 40.3312C90.8994 40.4126 91.2814 40.643 91.6634 40.8396C92.0482 41.0334 92.5454 41.3002 92.7729 41.4266C93.0004 41.5558 93.1857 41.6344 93.1857 41.6035C93.1857 41.5727 93.2447 41.5951 93.3178 41.6541C93.388 41.7159 93.447 41.7384 93.447 41.7075C93.447 41.6766 93.5593 41.7103 93.6969 41.7805C93.9806 41.9266 94.5002 42.1204 95.1434 42.3226C95.3822 42.3956 95.6181 42.4799 95.6659 42.5108C95.7136 42.5389 95.7894 42.5726 95.84 42.5838C95.8878 42.595 96.0226 42.6231 96.1433 42.6512C96.2641 42.6765 96.4579 42.7214 96.5787 42.7495C96.6967 42.7804 96.8989 42.8141 97.0225 42.8282C97.1489 42.8422 97.3314 42.8984 97.4326 42.9517C97.5337 43.0051 97.646 43.0444 97.6825 43.0388C97.7219 43.0304 97.7724 43.036 97.7949 43.0444C97.8511 43.0697 98.2499 43.1231 98.7077 43.1652C98.9015 43.1849 99.3706 43.2326 99.7526 43.2747C101.081 43.418 104.825 43.3478 105.106 43.1736C105.154 43.1455 105.415 43.109 105.69 43.095C105.963 43.0781 106.297 43.0248 106.429 42.9714C106.558 42.9208 106.668 42.8956 106.668 42.918C106.668 42.9377 106.766 42.918 106.887 42.8731C107.128 42.7804 107.463 42.7018 107.797 42.6568C107.918 42.6428 108.036 42.6203 108.058 42.6091C108.083 42.6006 108.131 42.595 108.168 42.6006C108.204 42.6091 108.232 42.581 108.232 42.5445C108.232 42.5052 108.3 42.4714 108.384 42.4658C108.665 42.449 108.948 42.3591 109.162 42.2187C109.28 42.14 109.434 42.1007 109.505 42.126C109.575 42.1541 109.614 42.1456 109.592 42.1063C109.566 42.0698 109.729 41.9855 109.951 41.9181C110.412 41.7833 111.552 41.2328 111.636 41.1092C111.667 41.0615 111.735 41.0502 111.788 41.0839C111.841 41.1176 111.886 41.112 111.886 41.0727C111.886 41.0362 112.044 40.9294 112.235 40.8368C112.426 40.7469 112.58 40.6345 112.58 40.5924C112.58 40.5503 112.619 40.539 112.664 40.5671C112.749 40.6177 113.257 40.3115 113.383 40.1346C113.417 40.0868 113.484 40.0419 113.535 40.0363C113.583 40.0307 113.661 40.0194 113.706 40.0138C113.754 40.0082 113.895 39.8958 114.024 39.7638C114.15 39.6318 114.226 39.5841 114.189 39.6543C114.153 39.7273 114.229 39.6796 114.355 39.5476C114.484 39.4155 114.644 39.306 114.715 39.306C114.785 39.306 114.841 39.2751 114.841 39.2358C114.841 39.1965 114.939 39.1122 115.057 39.0476C115.175 38.9858 115.251 38.9015 115.229 38.865C115.206 38.8285 115.262 38.7751 115.352 38.7443C115.445 38.7162 115.658 38.5617 115.827 38.4016C115.995 38.2443 116.198 38.0898 116.276 38.0589C116.355 38.028 116.394 37.9634 116.363 37.9157C116.335 37.8679 116.372 37.8286 116.445 37.8286C116.521 37.8286 116.583 37.7696 116.583 37.6994C116.583 37.6264 116.622 37.5674 116.67 37.5674C116.782 37.5674 117.7 36.6265 117.641 36.5703C117.616 36.545 117.653 36.5253 117.723 36.5253C117.793 36.5253 117.948 36.3681 118.063 36.1799C118.181 35.9889 118.327 35.8316 118.386 35.8316C118.445 35.8288 118.495 35.781 118.495 35.7192C118.495 35.6603 118.633 35.4777 118.801 35.3176C118.967 35.1547 119.105 34.9721 119.105 34.9131C119.105 34.8513 119.161 34.7811 119.234 34.753C119.307 34.7249 119.363 34.6435 119.363 34.5705C119.363 34.4974 119.402 34.4356 119.45 34.4356C119.501 34.4356 119.537 34.3879 119.537 34.3289C119.537 34.2671 119.636 34.107 119.754 33.9694C119.872 33.8318 120.018 33.6071 120.079 33.4694C120.138 33.3318 120.22 33.2195 120.256 33.2195C120.293 33.2195 120.321 33.1633 120.321 33.0959C120.321 33.0285 120.363 32.9583 120.411 32.9414C120.461 32.9274 120.509 32.8262 120.518 32.7195C120.526 32.61 120.557 32.5229 120.588 32.5229C120.619 32.5229 120.714 32.3656 120.798 32.1746C120.886 31.9836 120.992 31.8291 121.034 31.8291C121.079 31.8291 121.091 31.7898 121.06 31.7421C121.032 31.6943 121.051 31.655 121.105 31.655C121.158 31.655 121.178 31.6157 121.147 31.5679C121.119 31.5202 121.135 31.4809 121.186 31.4809C121.237 31.4809 121.27 31.45 121.262 31.4134C121.228 31.2899 121.377 30.9584 121.467 30.9584C121.517 30.9584 121.537 30.9023 121.509 30.8348C121.484 30.7646 121.517 30.6635 121.585 30.6073C121.652 30.554 121.7 30.4809 121.692 30.45C121.683 30.4192 121.765 30.2253 121.871 30.0231C121.978 29.8209 122.04 29.6524 122.009 29.6524C121.978 29.6524 121.992 29.6046 122.043 29.5428C122.222 29.3294 122.206 28.9389 122.017 28.894C121.88 28.8603 111.889 28.8406 111.232 28.8715C111.139 28.8743 110.971 28.9361 110.861 29.0092C110.752 29.0794 110.628 29.1187 110.586 29.0906C110.541 29.0653 110.454 29.0934 110.389 29.1524C110.325 29.2142 110.218 29.276 110.151 29.29C110.08 29.3041 109.985 29.3743 109.931 29.4473C109.878 29.5204 109.797 29.5681 109.752 29.5513C109.704 29.5372 109.569 29.6243 109.448 29.7422C108.985 30.2001 108.271 30.7815 108.173 30.7843C108.12 30.7843 108.061 30.8152 108.044 30.8545C107.988 30.9893 107.176 31.4809 107.01 31.4809C106.918 31.4809 106.842 31.5146 106.842 31.5539C106.842 31.6325 105.662 32.155 105.384 32.2027C105.3 32.2167 105.134 32.2813 105.013 32.3459C104.895 32.4134 104.786 32.4555 104.775 32.4414C104.747 32.4162 104.165 32.5285 103.904 32.61C103.87 32.6212 103.752 32.624 103.645 32.6156C103.536 32.6044 103.449 32.6324 103.449 32.6746C103.449 32.7195 103.306 32.742 103.134 32.7279C102.96 32.7139 102.749 32.7392 102.665 32.7841C102.584 32.829 102.497 32.8459 102.471 32.8234C102.449 32.801 102.005 32.7644 101.483 32.7448C100.244 32.6942 99.9239 32.6493 99.0139 32.3881C98.7499 32.3122 98.4858 32.2476 98.4268 32.242C98.3679 32.2364 98.3173 32.1999 98.3173 32.155C98.3173 32.1128 98.2836 32.0988 98.2415 32.1269C98.16 32.1746 96.8652 31.5651 96.4804 31.2955C96.3568 31.2084 96.2304 31.1607 96.1995 31.1916C96.1714 31.2196 96.1237 31.1803 96.0928 31.1017C96.0619 31.023 96.0029 30.9809 95.9608 31.0062C95.9158 31.0343 95.8821 31.0174 95.8821 30.9725C95.8821 30.8742 95.4496 30.5821 95.3007 30.5821C95.2417 30.5821 95.2165 30.5455 95.2417 30.5034C95.2698 30.4585 95.208 30.4023 95.1069 30.377C95.0086 30.3517 94.9244 30.2956 94.9244 30.2534C94.9244 30.2113 94.8654 30.1748 94.7952 30.1748C94.7221 30.1748 94.666 30.1327 94.666 30.0793C94.666 30.0259 94.4384 29.7731 94.166 29.5147C93.8907 29.2563 93.6941 29.0457 93.7278 29.0457C93.7643 29.0457 93.6801 28.9361 93.5425 28.8041C93.4048 28.6749 93.2925 28.5345 93.2925 28.4952C93.2897 28.4558 93.1296 28.2115 92.933 27.9475C92.7363 27.6863 92.5763 27.4447 92.5763 27.4082C92.5763 27.3745 92.4751 27.1947 92.3487 27.0093C92.2224 26.824 92.1662 26.7004 92.2252 26.7369C92.2841 26.7734 92.2308 26.6414 92.1072 26.4476C91.9836 26.251 91.8825 26.0319 91.8825 25.9589C91.8825 25.883 91.846 25.7566 91.8038 25.6724C91.6325 25.3353 91.5398 25.0657 91.4499 24.6528C91.3348 24.1332 91.2899 23.9562 91.2702 23.9562C91.2646 23.9562 91.2477 23.799 91.2393 23.608C91.2281 23.4142 91.2028 23.2204 91.1775 23.1726C91.1522 23.1249 91.1354 22.6474 91.1382 22.1081C91.141 21.5351 91.1073 21.1166 91.0539 21.0941C91.009 21.0745 91.0174 21.0548 91.0736 21.0492C91.1326 21.0464 91.1578 20.9846 91.1298 20.9116C91.1017 20.8385 91.1185 20.7318 91.1691 20.6728C91.2168 20.6138 91.2449 20.4285 91.2309 20.2599C91.214 20.0942 91.2309 19.9173 91.2646 19.8695C91.3011 19.8218 91.3348 19.6729 91.3432 19.5409C91.3516 19.4061 91.4191 19.1814 91.4921 19.041C91.5932 18.8415 91.5988 18.7826 91.5145 18.7797C91.4275 18.7797 91.4275 18.7657 91.5117 18.7095C91.5707 18.673 91.7112 18.3697 91.8263 18.0382C92.0875 17.263 92.756 15.9935 92.9358 15.9261C92.9779 15.9092 93.0565 15.8165 93.1099 15.721C93.1829 15.5806 93.1801 15.5553 93.0874 15.6059C93.0228 15.6396 93.1211 15.5272 93.3037 15.3559C93.4891 15.1846 93.6155 15.0413 93.5846 15.0413C93.5565 15.0413 93.8121 14.7576 94.1576 14.4122C94.503 14.0639 94.8148 13.783 94.8513 13.783C94.8878 13.783 94.9918 13.7044 95.0845 13.606C95.2979 13.387 95.6097 13.1286 95.6659 13.1286C95.708 13.1286 95.9889 12.9095 96.1967 12.7101C96.2641 12.6455 96.3175 12.623 96.3175 12.6539C96.3175 12.6876 96.4158 12.6511 96.5338 12.5724C96.6545 12.4938 96.7528 12.4601 96.7557 12.4966C96.7557 12.5331 96.7978 12.4966 96.8455 12.4123C96.8933 12.3281 97 12.2579 97.0815 12.2579C97.1629 12.255 97.3286 12.1792 97.4466 12.0865C97.5674 11.991 97.7359 11.9152 97.823 11.9124C97.91 11.9124 98.0505 11.8731 98.1375 11.8281C98.2218 11.7832 98.4184 11.7214 98.5701 11.6961C98.7246 11.668 98.9156 11.6118 98.997 11.5697C99.174 11.477 100.16 11.2523 100.255 11.2832C100.295 11.2945 100.407 11.2608 100.505 11.2074C100.643 11.1344 100.671 11.1372 100.623 11.2158C100.573 11.2973 100.604 11.2945 100.755 11.2158C101.109 11.0248 103.502 11.1372 104.297 11.3787C104.452 11.4265 104.581 11.4405 104.581 11.4096C104.581 11.3787 104.626 11.4012 104.685 11.4602C104.741 11.5163 104.867 11.5641 104.966 11.5641C105.168 11.5669 105.654 11.7298 105.96 11.9011C106.072 11.9629 106.142 11.977 106.114 11.9292C106.05 11.8281 107.201 12.4208 107.429 12.6061C107.516 12.6792 107.732 12.8112 107.906 12.9011C108.08 12.9909 108.243 13.1173 108.269 13.1847C108.294 13.2493 108.367 13.3027 108.429 13.3027C108.493 13.3027 108.726 13.4684 108.948 13.6735C109.167 13.8757 109.42 14.106 109.507 14.1818C109.721 14.3644 110.229 14.957 110.176 14.957C110.153 14.957 110.184 15.0104 110.249 15.0778C110.311 15.148 110.44 15.3025 110.538 15.4261C110.634 15.5497 110.78 15.7351 110.864 15.839C110.945 15.9401 111.016 16.044 111.016 16.0665C111.016 16.0862 107.875 16.0946 104.036 16.0834C100.196 16.0693 96.9775 16.0665 96.882 16.0721C96.6882 16.089 96.0366 16.6479 96.1209 16.7294C96.149 16.7575 96.1265 16.7827 96.0703 16.7827C96.0141 16.7827 95.9748 16.8108 95.9804 16.8473C95.9861 16.8838 95.9804 16.9316 95.972 16.9569C95.8569 17.2237 95.9102 23.9619 96.0254 24.1388C96.1012 24.254 96.1377 24.3495 96.1068 24.3495C95.9945 24.3495 96.6433 24.8663 96.8483 24.9365C97.3708 25.1219 123.132 25.0123 123.158 24.827C123.169 24.7315 123.203 24.4955 123.231 24.3045C123.259 24.1135 123.309 23.7821 123.34 23.5658C123.371 23.3496 123.397 22.4901 123.397 21.6531C123.397 20.274 123.371 19.819 123.239 18.8696C123.217 18.7011 123.177 18.4286 123.155 18.2601C123.133 18.0916 123.09 17.8585 123.065 17.7377C123.037 17.6197 122.998 17.4035 122.978 17.2602C122.958 17.117 122.883 16.8361 122.812 16.6367C122.739 16.4401 122.703 16.2575 122.725 16.2322C122.751 16.2097 122.7 16.0581 122.616 15.898C122.531 15.7379 122.456 15.5104 122.447 15.3896C122.422 15.0441 122.413 15.0301 122.298 15.0947C122.239 15.1284 122.22 15.1256 122.253 15.0891C122.284 15.0525 122.239 14.825 122.147 14.5835C122.054 14.3419 121.998 14.1144 122.023 14.0779C122.046 14.0414 122.023 13.9852 121.975 13.9571C121.928 13.9262 121.885 13.8251 121.885 13.7324C121.885 13.6398 121.852 13.5639 121.81 13.5639C121.767 13.5639 121.706 13.4263 121.675 13.2606C121.644 13.092 121.579 12.9544 121.534 12.9544C121.489 12.9544 121.458 12.9263 121.464 12.8898C121.489 12.755 121.256 12.2607 121.166 12.2607C121.116 12.2607 121.099 12.2354 121.13 12.2045C121.161 12.1736 121.107 12.0416 121.015 11.9068C120.919 11.7747 120.843 11.6287 120.843 11.5838C120.843 11.536 120.782 11.4489 120.709 11.3871C120.636 11.3254 120.596 11.2214 120.621 11.154C120.647 11.0866 120.638 11.0501 120.602 11.0698C120.568 11.0922 120.414 10.8984 120.262 10.64C120.11 10.3816 120.032 10.1934 120.088 10.2215C120.144 10.2496 120.122 10.2159 120.037 10.1485C119.956 10.0783 119.886 9.97435 119.886 9.91817C119.886 9.862 119.852 9.83672 119.81 9.862C119.768 9.88728 119.709 9.84234 119.681 9.75808C119.585 9.48563 119.262 9.00252 119.094 8.88456C119.001 8.81996 118.947 8.73569 118.973 8.69356C118.998 8.65143 118.939 8.59526 118.844 8.56436C118.748 8.53347 118.669 8.44639 118.669 8.37337C118.669 8.30034 118.523 8.08968 118.344 7.90993C118.164 7.72736 117.86 7.39593 117.669 7.16842C117.158 6.56735 116.372 5.7809 116.304 5.80056C116.271 5.8118 116.158 5.71349 116.057 5.58148C115.953 5.45228 115.844 5.34555 115.81 5.34555C115.746 5.34555 115.585 5.21916 115.184 4.8484C115.043 4.7192 114.928 4.64055 114.925 4.67426C114.925 4.70796 114.883 4.66864 114.835 4.58438C114.785 4.50012 114.695 4.43271 114.63 4.43271C114.566 4.43271 114.49 4.37372 114.462 4.30351C114.434 4.23048 114.254 4.1097 114.063 4.03106C113.869 3.95522 113.734 3.85692 113.76 3.81479C113.788 3.77265 113.729 3.73614 113.631 3.73614C113.529 3.73614 113.372 3.6575 113.277 3.562C113.181 3.4665 113.063 3.38786 113.015 3.38786C112.968 3.38786 112.928 3.34854 112.928 3.29517C112.928 3.24461 112.889 3.22776 112.841 3.25866C112.794 3.28674 112.754 3.26989 112.754 3.22214C112.754 3.17158 112.647 3.10417 112.515 3.07047C112.383 3.03957 112.159 2.92722 112.016 2.82049C111.872 2.71376 111.707 2.64635 111.645 2.66601C111.586 2.68848 111.538 2.66882 111.538 2.62107C111.538 2.57613 111.381 2.46097 111.193 2.36548C111.002 2.27279 110.872 2.23908 110.9 2.29245C110.934 2.34582 110.872 2.31211 110.768 2.22223C110.665 2.13235 110.58 2.0846 110.58 2.1155C110.58 2.1492 110.454 2.10707 110.297 2.02562C110.142 1.94417 109.96 1.86552 109.892 1.85429C109.828 1.84305 109.738 1.78407 109.698 1.71947C109.639 1.62678 109.625 1.62678 109.625 1.71947C109.625 1.80654 109.589 1.80092 109.488 1.69981C109.412 1.62397 109.325 1.55937 109.291 1.55375C108.915 1.50881 108.707 1.44983 108.682 1.38242C108.665 1.33748 108.58 1.30096 108.491 1.30096C108.403 1.30096 108.221 1.25603 108.086 1.19985C107.951 1.14648 107.772 1.10997 107.687 1.1184C107.606 1.12963 107.536 1.09312 107.536 1.03975C107.536 0.986386 107.502 0.963917 107.46 0.992004C107.418 1.01728 107.272 1.00043 107.134 0.95549C106.996 0.91055 106.786 0.859994 106.668 0.845949C106.547 0.829097 106.406 0.789775 106.35 0.75607C106.297 0.722365 106.072 0.685851 105.85 0.671808C105.631 0.660573 105.449 0.629676 105.449 0.604398C105.449 0.581928 105.362 0.556649 105.255 0.551032C105.145 0.545415 104.887 0.517327 104.682 0.483622C104.474 0.452726 104.12 0.407786 103.898 0.382508C103.396 0.326333 100.868 0.258923 100.828 0.298246Z" fill="white"/>
</g>
<mask id="mask2_3802_2179" style="mask-type:luminance" maskUnits="userSpaceOnUse" x="16" y="57" width="16" height="16">
<path d="M16.3496 57.8937H31.4494V72.7659H16.3496V57.8937Z" fill="white"/>
</mask>
<g mask="url(#mask2_3802_2179)">
<path fill-rule="evenodd" clip-rule="evenodd" d="M19.1549 58.5732C19.0875 58.6435 18.7195 58.7193 18.4948 58.7109C18.3853 58.7053 18.3123 58.7333 18.3375 58.7727C18.3628 58.812 18.2392 58.8934 18.0679 58.958C17.7056 59.0872 17.2225 59.5394 17.377 59.604C17.4331 59.6265 17.4163 59.6462 17.3404 59.6518C17.0034 59.6686 16.6383 60.8904 16.6916 61.8117C16.7169 62.2049 16.7029 62.5279 16.6663 62.5279C16.6298 62.5279 16.5989 63.7582 16.6017 65.258C16.6045 66.7607 16.6354 67.9741 16.6663 67.9544C16.7 67.9348 16.7506 67.9572 16.7815 68.005C16.8096 68.0555 17.1073 68.0949 17.4387 68.0949H18.0426V68.7886C18.0426 69.1959 18.0061 69.4852 17.9556 69.4852C17.9022 69.4852 17.8685 69.8616 17.8685 70.443C17.8685 71.0216 17.9022 71.3979 17.9556 71.3979C18.0033 71.3979 18.0426 71.4597 18.0426 71.5356C18.0426 71.6086 18.0033 71.6451 17.9556 71.617C17.7702 71.5019 17.8825 71.7266 18.1437 71.9962C18.2954 72.1507 18.4724 72.2574 18.5342 72.2321C18.5988 72.2069 18.6521 72.2237 18.6521 72.2715C18.6521 72.3922 20.4469 72.3782 20.68 72.2574C21.1716 72.0018 21.1772 71.9822 21.1575 70.075C21.1463 69.1032 21.1687 68.2606 21.2053 68.2016C21.2699 68.0949 26.0503 68.0359 26.32 68.1398C26.4098 68.1735 26.4323 68.5695 26.4239 70.0582L26.4127 71.9316L26.6177 72.0102C26.7329 72.0552 26.8255 72.1142 26.8255 72.1423C26.8255 72.1703 26.7806 72.1647 26.7272 72.131C26.6626 72.0917 26.6486 72.1057 26.6907 72.1731C26.7413 72.2546 26.7834 72.2546 26.8817 72.1703C26.9856 72.0861 27.0053 72.0889 26.9828 72.19C26.9547 72.3248 28.7214 72.4231 28.9939 72.3023C29.0697 72.2686 29.1933 72.249 29.2663 72.2574C29.4124 72.2743 29.7129 71.9962 29.6905 71.867C29.682 71.8249 29.6792 70.9598 29.6848 69.943L29.6961 68.0949H30.1679C30.4291 68.0949 30.7409 68.0555 30.8617 68.0106L31.0836 67.9263V64.7749C31.0836 62.424 31.0555 61.5926 30.9769 61.4943C30.8898 61.3876 30.8926 61.3764 30.9937 61.4382C31.092 61.4971 31.1032 61.4775 31.0443 61.3455C31.0049 61.2556 30.9684 61.0955 30.9656 60.9916C30.96 60.8904 30.9319 60.8202 30.901 60.8399C30.8701 60.8596 30.8224 60.8174 30.7971 60.7472C30.769 60.677 30.783 60.5983 30.828 60.5703C30.8701 60.545 30.8842 60.4607 30.8561 60.3877C30.8139 60.2781 30.7887 60.2753 30.7297 60.368C30.6735 60.4551 30.6538 60.4579 30.6426 60.3765C30.637 60.3147 30.623 60.2276 30.6089 60.1798C30.5977 60.1321 30.5836 60.0338 30.578 59.9636C30.5724 59.8905 30.4966 59.8316 30.4151 59.8316C30.2831 59.8287 30.2803 59.8175 30.3926 59.7445C30.5022 59.6743 30.4966 59.6602 30.3561 59.6602C30.2634 59.6574 30.2129 59.6349 30.241 59.6069C30.3084 59.5366 29.9517 59.135 29.8197 59.135C29.7635 59.135 29.6905 59.0704 29.6596 58.9917C29.6174 58.8822 29.5809 58.871 29.5023 58.9468C29.4264 59.0226 29.359 59.0058 29.2214 58.8794C29.1034 58.767 28.89 58.6996 28.595 58.6828C28.3507 58.6687 28.1653 58.6294 28.185 58.5985C28.2046 58.5648 26.2835 58.5395 23.9157 58.5395C21.4103 58.5423 19.5874 58.576 19.5593 58.621C19.5341 58.6659 19.4245 58.6968 19.3206 58.6912C19.1436 58.6856 19.1436 58.68 19.3459 58.6154C19.5369 58.5536 19.5425 58.5423 19.3824 58.5367C19.2841 58.5311 19.1802 58.548 19.1549 58.5732Z" fill="#FCD441"/>
</g>
<mask id="mask3_3802_2179" style="mask-type:luminance" maskUnits="userSpaceOnUse" x="0" y="0" width="49" height="38">
<path d="M0 0.00012207H48.5097V37.7608H0V0.00012207Z" fill="white"/>
</mask>
<g mask="url(#mask3_3802_2179)">
<path fill-rule="evenodd" clip-rule="evenodd" d="M-52.2506 0.230729C-52.141 0.253198 -51.9837 0.253198 -51.9023 0.230729C-51.818 0.208259 -51.9079 0.191406 -52.0989 0.191406C-52.2899 0.194215 -52.3573 0.211067 -52.2506 0.230729ZM62.5256 3.03947C62.5256 4.54776 62.5369 5.16287 62.5509 4.41013C62.565 3.65739 62.565 2.42435 62.5509 1.67161C62.5369 0.918869 62.5256 1.53398 62.5256 3.03947ZM104.971 0.51722C105.067 0.559351 105.204 0.593056 105.275 0.593056C105.359 0.593056 105.342 0.564968 105.232 0.51722C105.137 0.477898 104.999 0.444193 104.926 0.444193C104.845 0.444193 104.862 0.47228 104.971 0.51722ZM-1.48827 2.99734C-1.48827 4.00286 -1.47422 4.4017 -1.46018 3.8849C-1.44333 3.36809 -1.44333 2.54513 -1.46018 2.05641C-1.47703 1.5705 -1.48827 1.99181 -1.48827 2.99734ZM-14.8887 1.95248C-14.8887 2.33447 -14.8719 2.48334 -14.855 2.2783C-14.8354 2.07326 -14.8354 1.75868 -14.855 1.58173C-14.8747 1.40197 -14.8887 1.5705 -14.8887 1.95248ZM43.6537 7.65141C43.6537 11.1174 43.665 12.5358 43.679 10.8028C43.6903 9.06702 43.6903 6.23019 43.679 4.4972C43.665 2.76421 43.6537 4.18262 43.6537 7.65141ZM94.4469 1.56207C94.3374 1.60982 94.3205 1.63791 94.4048 1.63791C94.475 1.63791 94.6126 1.6042 94.7081 1.56207C94.8177 1.51432 94.8345 1.48623 94.7531 1.48623C94.6801 1.48623 94.5424 1.51994 94.4469 1.56207ZM77.6507 3.30068C77.6507 3.75569 77.6647 3.94107 77.6816 3.71356C77.7012 3.48886 77.7012 3.1153 77.6816 2.88779C77.6647 2.66029 77.6507 2.84566 77.6507 3.30068ZM-26.0113 6.56162C-26.0113 8.18788 -26.0001 8.84232 -25.9861 8.01374C-25.972 7.18516 -25.972 5.85382 -25.9861 5.05614C-26.0001 4.25846 -26.0113 4.93536 -26.0113 6.56162ZM-1.48265 10.0838C-1.48265 12.9796 -1.47422 14.1621 -1.46018 12.7156C-1.44614 11.2691 -1.44614 8.9013 -1.46018 7.4548C-1.47422 6.0083 -1.48265 7.19078 -1.48265 10.0838ZM86.3578 6.86778C86.2229 7.01102 86.1471 7.12618 86.1892 7.12337C86.2679 7.11775 86.7145 6.60656 86.6414 6.60656C86.6246 6.60656 86.4954 6.72453 86.3578 6.86778ZM117.714 7.17955C117.714 7.26381 118.147 7.70197 118.147 7.62052C118.147 7.59243 118.049 7.46604 117.928 7.33684C117.81 7.20763 117.712 7.13741 117.714 7.17955ZM30.0454 13.7632L30.0904 16.8248L30.1128 13.8306C30.1241 12.1819 30.1044 10.8056 30.0679 10.7691C30.0314 10.7326 30.0229 12.0808 30.0454 13.7632ZM103.233 11.2157C103.261 11.2635 103.37 11.3 103.477 11.2972C103.66 11.2915 103.66 11.2887 103.494 11.2157C103.252 11.1118 103.168 11.1118 103.233 11.2157ZM97.4467 12.092L97.2304 12.269L97.5141 12.1314C97.6685 12.0555 97.7949 11.9769 97.7949 11.9516C97.7949 11.8673 97.6573 11.9207 97.4467 12.092ZM96.208 12.7437C95.8822 12.9206 95.9019 12.9936 96.2305 12.8251C96.3737 12.7493 96.4917 12.6706 96.4917 12.6482C96.4917 12.592 96.4805 12.5948 96.208 12.7437ZM-1.49107 16.6085C-1.49107 17.3022 -1.47703 17.5859 -1.46018 17.2376C-1.44333 16.8922 -1.44333 16.3248 -1.46018 15.9765C-1.47703 15.631 -1.49107 15.9147 -1.49107 16.6085ZM97.2978 16.0608C97.4298 16.0804 97.6236 16.0804 97.7303 16.0608C97.8399 16.0383 97.7303 16.0243 97.4916 16.0243C97.2529 16.0243 97.1658 16.0411 97.2978 16.0608ZM103.165 16.0636C104.615 16.0776 106.98 16.0776 108.429 16.0636C109.875 16.0523 108.69 16.0411 105.797 16.0411C102.904 16.0411 101.719 16.0523 103.165 16.0636ZM95.9159 17.9988C95.9159 18.5016 95.9299 18.7066 95.9468 18.4566C95.9636 18.2038 95.9636 17.7938 95.9468 17.5438C95.9299 17.291 95.9159 17.496 95.9159 17.9988ZM-1.52478 18.7122C-1.55006 19.1785 -1.53601 19.5268 -1.4995 19.4874C-1.46299 19.4509 -1.44333 19.0689 -1.45737 18.6448L-1.48265 17.8696L-1.52478 18.7122ZM-14.8859 22.3467C-14.8859 22.8495 -14.8719 23.0545 -14.855 22.8046C-14.8354 22.5546 -14.8354 22.1417 -14.855 21.8917C-14.8719 21.6389 -14.8859 21.8468 -14.8859 22.3467ZM95.9019 23.5657C95.9019 23.7314 95.9215 23.8017 95.9412 23.7174C95.9636 23.6331 95.9636 23.4955 95.9412 23.4141C95.9215 23.3298 95.9019 23.3972 95.9019 23.5657ZM-64.0332 23.914C-64.0332 24.1275 -64.0164 24.2173 -63.9967 24.1078C-63.9742 24.0011 -63.9742 23.8269 -63.9967 23.7174C-64.0164 23.6107 -64.0332 23.6977 -64.0332 23.914ZM29.9836 24.0432C29.9836 24.282 30.0005 24.369 30.0201 24.237C30.0398 24.105 30.0398 23.9112 30.0201 23.8045C30.0005 23.6977 29.9836 23.8045 29.9836 24.0432ZM-1.58376 24.6527C-1.58376 24.9869 -1.56691 25.1133 -1.54725 24.9336C-1.5304 24.7538 -1.5304 24.4786 -1.55006 24.3241C-1.56972 24.1696 -1.58376 24.3185 -1.58376 24.6527ZM96.3793 24.6976C96.5338 24.8606 96.6743 24.9729 96.6911 24.9532C96.7108 24.9308 96.5844 24.7988 96.413 24.6583L96.0985 24.4055L96.3793 24.6976ZM97.9916 25.0235C98.5055 25.0375 99.3482 25.0375 99.8622 25.0235C100.376 25.0066 99.9549 24.9954 98.9269 24.9954C97.8989 24.9954 97.4776 25.0066 97.9916 25.0235ZM112.302 28.849C112.603 28.8658 113.072 28.8658 113.344 28.849C113.619 28.8321 113.372 28.8181 112.799 28.8181C112.223 28.8181 112.002 28.8321 112.302 28.849ZM119.695 28.849C119.995 28.8658 120.464 28.8658 120.737 28.849C121.012 28.8321 120.765 28.8181 120.192 28.8181C119.616 28.8181 119.394 28.8321 119.695 28.849ZM81.9677 30.2393C81.9677 30.2898 82.0464 30.4219 82.1475 30.5342L82.3244 30.742L82.1727 30.4808C81.9705 30.1354 81.9677 30.1326 81.9677 30.2393ZM101.081 32.7587C101.188 32.7784 101.345 32.7784 101.427 32.7559C101.511 32.7363 101.424 32.7194 101.23 32.7194C101.039 32.7194 100.972 32.7391 101.081 32.7587ZM85.5011 35.9157C85.6781 36.1067 85.8382 36.264 85.855 36.264C85.9224 36.264 85.3157 35.5703 85.2455 35.5703C85.209 35.5675 85.3213 35.7247 85.5011 35.9157ZM-60.0532 37.0083C-60.0504 37.0954 -59.6235 37.6459 -59.6207 37.5645C-59.6207 37.5364 -59.719 37.3819 -59.8398 37.219C-59.9577 37.0589 -60.056 36.9634 -60.0532 37.0083Z" fill="#5C3592"/>
</g>
</svg>
